<?xml version="1.0" encoding="utf-8"?>
<!-- Generator: Adobe Illustrator 24.0.2, SVG Export Plug-In . SVG Version: 6.00 Build 0)  -->
<svg version="1.1" xmlns="http://www.w3.org/2000/svg" xmlns:xlink="http://www.w3.org/1999/xlink" x="0px" y="0px"
	 viewBox="0 0 704.69 272.69" style="enable-background:new 0 0 704.69 272.69;" xml:space="preserve">
<style type="text/css">
	.st0{fill:none;}
	.st1{fill:none;stroke:#969696;stroke-miterlimit:10;}
	.st2{fill:none;stroke:#000000;stroke-miterlimit:10;}
	.st3{fill:none;stroke:#FBD4E0;stroke-width:0.7087;stroke-linecap:round;stroke-linejoin:round;stroke-miterlimit:10;}
</style>
<symbol  id="_x31_00u" viewBox="-27 -27 54 54">
	<rect x="-27" y="-27" class="st0" width="54" height="54"/>
	<g>
		<path class="st1" d="M18-14.4c0-1.98-1.62-3.6-3.6-3.6h-28.8c-1.98,0-3.6,1.62-3.6,3.6v28.8c0,1.98,1.62,3.6,3.6,3.6h28.8
			c1.98,0,3.6-1.62,3.6-3.6V-14.4z"/>
	</g>
	<rect x="-25.8" y="-25.8" class="st2" width="51.59" height="51.59"/>
</symbol>
<symbol  id="_x32_00u" viewBox="-54 -27 108 54">
	<g>
		<path class="st1" d="M45-14.4c0-1.98-1.62-3.6-3.6-3.6h-82.8c-1.98,0-3.6,1.62-3.6,3.6v28.8c0,1.98,1.62,3.6,3.6,3.6h82.8
			c1.98,0,3.6-1.62,3.6-3.6V-14.4z"/>
	</g>
	<rect x="-52.8" y="-25.8" class="st2" width="105.59" height="51.59"/>
	<rect x="-54" y="-27" class="st0" width="108" height="54"/>
</symbol>
<g id="keycap_outlines">
	
		<use xlink:href="#_x31_00u"  width="54" height="54" x="-27" y="-27" transform="matrix(1 0 0 -1 55.3465 55.3465)" style="overflow:visible;"/>
	
		<use xlink:href="#_x31_00u"  width="54" height="54" x="-27" y="-27" transform="matrix(1 0 0 -1 109.3465 55.3465)" style="overflow:visible;"/>
	
		<use xlink:href="#_x31_00u"  width="54" height="54" x="-27" y="-27" transform="matrix(1 0 0 -1 163.3465 55.3465)" style="overflow:visible;"/>
	
		<use xlink:href="#_x31_00u"  width="54" height="54" x="-27" y="-27" transform="matrix(1 0 0 -1 217.3465 55.3465)" style="overflow:visible;"/>
	
		<use xlink:href="#_x31_00u"  width="54" height="54" x="-27" y="-27" transform="matrix(1 0 0 -1 271.3465 55.3465)" style="overflow:visible;"/>
	
		<use xlink:href="#_x31_00u"  width="54" height="54" x="-27" y="-27" transform="matrix(1 0 0 -1 325.3465 55.3465)" style="overflow:visible;"/>
	
		<use xlink:href="#_x31_00u"  width="54" height="54" x="-27" y="-27" transform="matrix(1 0 0 -1 379.3465 55.3465)" style="overflow:visible;"/>
	
		<use xlink:href="#_x31_00u"  width="54" height="54" x="-27" y="-27" transform="matrix(1 0 0 -1 433.3465 55.3465)" style="overflow:visible;"/>
	
		<use xlink:href="#_x31_00u"  width="54" height="54" x="-27" y="-27" transform="matrix(1 0 0 -1 487.3465 55.3465)" style="overflow:visible;"/>
	
		<use xlink:href="#_x31_00u"  width="54" height="54" x="-27" y="-27" transform="matrix(1 0 0 -1 541.3465 55.3465)" style="overflow:visible;"/>
	
		<use xlink:href="#_x31_00u"  width="54" height="54" x="-27" y="-27" transform="matrix(1 0 0 -1 595.3465 55.3465)" style="overflow:visible;"/>
	
		<use xlink:href="#_x31_00u"  width="54" height="54" x="-27" y="-27" transform="matrix(1 0 0 -1 649.3465 55.3465)" style="overflow:visible;"/>
	<g id="_x31_u">
	</g>
	<g id="_x31_u_1_">
	</g>
	<g id="_x31_u_2_">
	</g>
	<g id="_x31_u_3_">
	</g>
	<g id="_x31_u_4_">
	</g>
	
		<use xlink:href="#_x32_00u"  width="108" height="54" x="-54" y="-27" transform="matrix(1 0 0 -1 352.3465 217.3465)" style="overflow:visible;"/>
	
		<use xlink:href="#_x31_00u"  width="54" height="54" x="-27" y="-27" transform="matrix(1 0 0 -1 55.3465 109.3465)" style="overflow:visible;"/>
	
		<use xlink:href="#_x31_00u"  width="54" height="54" x="-27" y="-27" transform="matrix(1 0 0 -1 109.3465 109.3465)" style="overflow:visible;"/>
	
		<use xlink:href="#_x31_00u"  width="54" height="54" x="-27" y="-27" transform="matrix(1 0 0 -1 163.3465 109.3465)" style="overflow:visible;"/>
	
		<use xlink:href="#_x31_00u"  width="54" height="54" x="-27" y="-27" transform="matrix(1 0 0 -1 217.3465 109.3465)" style="overflow:visible;"/>
	
		<use xlink:href="#_x31_00u"  width="54" height="54" x="-27" y="-27" transform="matrix(1 0 0 -1 271.3465 109.3465)" style="overflow:visible;"/>
	
		<use xlink:href="#_x31_00u"  width="54" height="54" x="-27" y="-27" transform="matrix(1 0 0 -1 325.3465 109.3465)" style="overflow:visible;"/>
	
		<use xlink:href="#_x31_00u"  width="54" height="54" x="-27" y="-27" transform="matrix(1 0 0 -1 379.3465 109.3465)" style="overflow:visible;"/>
	
		<use xlink:href="#_x31_00u"  width="54" height="54" x="-27" y="-27" transform="matrix(1 0 0 -1 433.3465 109.3465)" style="overflow:visible;"/>
	
		<use xlink:href="#_x31_00u"  width="54" height="54" x="-27" y="-27" transform="matrix(1 0 0 -1 487.3465 109.3465)" style="overflow:visible;"/>
	
		<use xlink:href="#_x31_00u"  width="54" height="54" x="-27" y="-27" transform="matrix(1 0 0 -1 541.3465 109.3465)" style="overflow:visible;"/>
	
		<use xlink:href="#_x31_00u"  width="54" height="54" x="-27" y="-27" transform="matrix(1 0 0 -1 595.3465 109.3465)" style="overflow:visible;"/>
	
		<use xlink:href="#_x31_00u"  width="54" height="54" x="-27" y="-27" transform="matrix(1 0 0 -1 649.3465 109.3465)" style="overflow:visible;"/>
	
		<use xlink:href="#_x31_00u"  width="54" height="54" x="-27" y="-27" transform="matrix(1 0 0 -1 55.3465 163.3465)" style="overflow:visible;"/>
	
		<use xlink:href="#_x31_00u"  width="54" height="54" x="-27" y="-27" transform="matrix(1 0 0 -1 109.3465 163.3465)" style="overflow:visible;"/>
	
		<use xlink:href="#_x31_00u"  width="54" height="54" x="-27" y="-27" transform="matrix(1 0 0 -1 163.3465 163.3465)" style="overflow:visible;"/>
	
		<use xlink:href="#_x31_00u"  width="54" height="54" x="-27" y="-27" transform="matrix(1 0 0 -1 217.3465 163.3465)" style="overflow:visible;"/>
	
		<use xlink:href="#_x31_00u"  width="54" height="54" x="-27" y="-27" transform="matrix(1 0 0 -1 271.3465 163.3465)" style="overflow:visible;"/>
	
		<use xlink:href="#_x31_00u"  width="54" height="54" x="-27" y="-27" transform="matrix(1 0 0 -1 325.3465 163.3465)" style="overflow:visible;"/>
	
		<use xlink:href="#_x31_00u"  width="54" height="54" x="-27" y="-27" transform="matrix(1 0 0 -1 379.3465 163.3465)" style="overflow:visible;"/>
	
		<use xlink:href="#_x31_00u"  width="54" height="54" x="-27" y="-27" transform="matrix(1 0 0 -1 433.3465 163.3465)" style="overflow:visible;"/>
	
		<use xlink:href="#_x31_00u"  width="54" height="54" x="-27" y="-27" transform="matrix(1 0 0 -1 487.3465 163.3465)" style="overflow:visible;"/>
	
		<use xlink:href="#_x31_00u"  width="54" height="54" x="-27" y="-27" transform="matrix(1 0 0 -1 541.3465 163.3465)" style="overflow:visible;"/>
	
		<use xlink:href="#_x31_00u"  width="54" height="54" x="-27" y="-27" transform="matrix(1 0 0 -1 595.3465 163.3465)" style="overflow:visible;"/>
	
		<use xlink:href="#_x31_00u"  width="54" height="54" x="-27" y="-27" transform="matrix(1 0 0 -1 649.3465 163.3465)" style="overflow:visible;"/>
	
		<use xlink:href="#_x31_00u"  width="54" height="54" x="-27" y="-27" transform="matrix(1 0 0 -1 55.3465 217.3465)" style="overflow:visible;"/>
	
		<use xlink:href="#_x31_00u"  width="54" height="54" x="-27" y="-27" transform="matrix(1 0 0 -1 109.3465 217.3465)" style="overflow:visible;"/>
	
		<use xlink:href="#_x31_00u"  width="54" height="54" x="-27" y="-27" transform="matrix(1 0 0 -1 163.3465 217.3465)" style="overflow:visible;"/>
	
		<use xlink:href="#_x31_00u"  width="54" height="54" x="-27" y="-27" transform="matrix(1 0 0 -1 217.3465 217.3465)" style="overflow:visible;"/>
	
		<use xlink:href="#_x31_00u"  width="54" height="54" x="-27" y="-27" transform="matrix(1 0 0 -1 271.3465 217.3465)" style="overflow:visible;"/>
	
		<use xlink:href="#_x31_00u"  width="54" height="54" x="-27" y="-27" transform="matrix(1 0 0 -1 433.3465 217.3465)" style="overflow:visible;"/>
	
		<use xlink:href="#_x31_00u"  width="54" height="54" x="-27" y="-27" transform="matrix(1 0 0 -1 487.3465 217.3465)" style="overflow:visible;"/>
	
		<use xlink:href="#_x31_00u"  width="54" height="54" x="-27" y="-27" transform="matrix(1 0 0 -1 541.3465 217.3465)" style="overflow:visible;"/>
	
		<use xlink:href="#_x31_00u"  width="54" height="54" x="-27" y="-27" transform="matrix(1 0 0 -1 595.3465 217.3465)" style="overflow:visible;"/>
	
		<use xlink:href="#_x31_00u"  width="54" height="54" x="-27" y="-27" transform="matrix(1 0 0 -1 649.3465 217.3465)" style="overflow:visible;"/>
</g>
<g id="switch_cutouts">
	<g>
		<g id="LINE">
			<line class="st3" x1="36.92" y1="35.5" x2="73.77" y2="35.5"/>
		</g>
		<g id="LINE_211_">
			<line class="st3" x1="36.92" y1="75.19" x2="73.77" y2="75.19"/>
		</g>
		<g id="LINE_210_">
			<line class="st3" x1="35.5" y1="36.92" x2="35.5" y2="73.77"/>
		</g>
		<g id="LINE_209_">
			<line class="st3" x1="75.19" y1="36.92" x2="75.19" y2="73.77"/>
		</g>
		<g id="ARC">
			<path class="st3" d="M36.92,35.5c-0.78,0-1.42,0.63-1.42,1.42"/>
		</g>
		<g id="ARC_211_">
			<path class="st3" d="M75.19,36.92c0-0.78-0.63-1.42-1.42-1.42"/>
		</g>
		<g id="ARC_210_">
			<path class="st3" d="M35.5,73.77c0,0.78,0.63,1.42,1.42,1.42"/>
		</g>
		<g id="ARC_209_">
			<path class="st3" d="M73.77,75.19c0.78,0,1.42-0.63,1.42-1.42"/>
		</g>
		<g id="LINE_208_">
			<line class="st3" x1="90.92" y1="35.5" x2="127.77" y2="35.5"/>
		</g>
		<g id="LINE_207_">
			<line class="st3" x1="90.92" y1="75.19" x2="127.77" y2="75.19"/>
		</g>
		<g id="LINE_206_">
			<line class="st3" x1="89.5" y1="36.92" x2="89.5" y2="73.77"/>
		</g>
		<g id="LINE_205_">
			<line class="st3" x1="129.19" y1="36.92" x2="129.19" y2="73.77"/>
		</g>
		<g id="ARC_208_">
			<path class="st3" d="M90.92,35.5c-0.78,0-1.42,0.63-1.42,1.42"/>
		</g>
		<g id="ARC_207_">
			<path class="st3" d="M129.19,36.92c0-0.78-0.63-1.42-1.42-1.42"/>
		</g>
		<g id="ARC_206_">
			<path class="st3" d="M89.5,73.77c0,0.78,0.63,1.42,1.42,1.42"/>
		</g>
		<g id="ARC_205_">
			<path class="st3" d="M127.77,75.19c0.78,0,1.42-0.63,1.42-1.42"/>
		</g>
		<g id="LINE_204_">
			<line class="st3" x1="144.92" y1="35.5" x2="181.77" y2="35.5"/>
		</g>
		<g id="LINE_203_">
			<line class="st3" x1="144.92" y1="75.19" x2="181.77" y2="75.19"/>
		</g>
		<g id="LINE_202_">
			<line class="st3" x1="143.5" y1="36.92" x2="143.5" y2="73.77"/>
		</g>
		<g id="LINE_201_">
			<line class="st3" x1="183.19" y1="36.92" x2="183.19" y2="73.77"/>
		</g>
		<g id="ARC_204_">
			<path class="st3" d="M144.92,35.5c-0.78,0-1.42,0.63-1.42,1.42"/>
		</g>
		<g id="ARC_203_">
			<path class="st3" d="M183.19,36.92c0-0.78-0.63-1.42-1.42-1.42"/>
		</g>
		<g id="ARC_202_">
			<path class="st3" d="M143.5,73.77c0,0.78,0.63,1.42,1.42,1.42"/>
		</g>
		<g id="ARC_201_">
			<path class="st3" d="M181.77,75.19c0.78,0,1.42-0.63,1.42-1.42"/>
		</g>
		<g id="LINE_200_">
			<line class="st3" x1="198.92" y1="35.5" x2="235.77" y2="35.5"/>
		</g>
		<g id="LINE_199_">
			<line class="st3" x1="198.92" y1="75.19" x2="235.77" y2="75.19"/>
		</g>
		<g id="LINE_198_">
			<line class="st3" x1="197.5" y1="36.92" x2="197.5" y2="73.77"/>
		</g>
		<g id="LINE_197_">
			<line class="st3" x1="237.19" y1="36.92" x2="237.19" y2="73.77"/>
		</g>
		<g id="ARC_200_">
			<path class="st3" d="M198.92,35.5c-0.78,0-1.42,0.63-1.42,1.42"/>
		</g>
		<g id="ARC_199_">
			<path class="st3" d="M237.19,36.92c0-0.78-0.63-1.42-1.42-1.42"/>
		</g>
		<g id="ARC_198_">
			<path class="st3" d="M197.5,73.77c0,0.78,0.63,1.42,1.42,1.42"/>
		</g>
		<g id="ARC_197_">
			<path class="st3" d="M235.77,75.19c0.78,0,1.42-0.63,1.42-1.42"/>
		</g>
		<g id="LINE_196_">
			<line class="st3" x1="252.92" y1="35.5" x2="289.77" y2="35.5"/>
		</g>
		<g id="LINE_171_">
			<line class="st3" x1="252.92" y1="75.19" x2="289.77" y2="75.19"/>
		</g>
		<g id="LINE_170_">
			<line class="st3" x1="251.5" y1="36.92" x2="251.5" y2="73.77"/>
		</g>
		<g id="LINE_169_">
			<line class="st3" x1="291.19" y1="36.92" x2="291.19" y2="73.77"/>
		</g>
		<g id="ARC_196_">
			<path class="st3" d="M252.92,35.5c-0.78,0-1.42,0.63-1.42,1.42"/>
		</g>
		<g id="ARC_171_">
			<path class="st3" d="M291.19,36.92c0-0.78-0.63-1.42-1.42-1.42"/>
		</g>
		<g id="ARC_170_">
			<path class="st3" d="M251.5,73.77c0,0.78,0.63,1.42,1.42,1.42"/>
		</g>
		<g id="ARC_169_">
			<path class="st3" d="M289.77,75.19c0.78,0,1.42-0.63,1.42-1.42"/>
		</g>
		<g id="LINE_168_">
			<line class="st3" x1="306.92" y1="35.5" x2="343.77" y2="35.5"/>
		</g>
		<g id="LINE_21_">
			<line class="st3" x1="306.92" y1="75.19" x2="343.77" y2="75.19"/>
		</g>
		<g id="LINE_22_">
			<line class="st3" x1="305.5" y1="36.92" x2="305.5" y2="73.77"/>
		</g>
		<g id="LINE_23_">
			<line class="st3" x1="345.19" y1="36.92" x2="345.19" y2="73.77"/>
		</g>
		<g id="ARC_168_">
			<path class="st3" d="M306.92,35.5c-0.78,0-1.42,0.63-1.42,1.42"/>
		</g>
		<g id="ARC_21_">
			<path class="st3" d="M345.19,36.92c0-0.78-0.63-1.42-1.42-1.42"/>
		</g>
		<g id="ARC_22_">
			<path class="st3" d="M305.5,73.77c0,0.78,0.63,1.42,1.42,1.42"/>
		</g>
		<g id="ARC_23_">
			<path class="st3" d="M343.77,75.19c0.78,0,1.42-0.63,1.42-1.42"/>
		</g>
		<g id="LINE_24_">
			<line class="st3" x1="360.92" y1="35.5" x2="397.77" y2="35.5"/>
		</g>
		<g id="LINE_25_">
			<line class="st3" x1="360.92" y1="75.19" x2="397.77" y2="75.19"/>
		</g>
		<g id="LINE_26_">
			<line class="st3" x1="359.5" y1="36.92" x2="359.5" y2="73.77"/>
		</g>
		<g id="LINE_27_">
			<line class="st3" x1="399.19" y1="36.92" x2="399.19" y2="73.77"/>
		</g>
		<g id="ARC_24_">
			<path class="st3" d="M360.92,35.5c-0.78,0-1.42,0.63-1.42,1.42"/>
		</g>
		<g id="ARC_25_">
			<path class="st3" d="M399.19,36.92c0-0.78-0.63-1.42-1.42-1.42"/>
		</g>
		<g id="ARC_26_">
			<path class="st3" d="M359.5,73.77c0,0.78,0.63,1.42,1.42,1.42"/>
		</g>
		<g id="ARC_27_">
			<path class="st3" d="M397.77,75.19c0.78,0,1.42-0.63,1.42-1.42"/>
		</g>
		<g id="LINE_28_">
			<line class="st3" x1="414.92" y1="35.5" x2="451.77" y2="35.5"/>
		</g>
		<g id="LINE_29_">
			<line class="st3" x1="414.92" y1="75.19" x2="451.77" y2="75.19"/>
		</g>
		<g id="LINE_30_">
			<line class="st3" x1="413.5" y1="36.92" x2="413.5" y2="73.77"/>
		</g>
		<g id="LINE_31_">
			<line class="st3" x1="453.19" y1="36.92" x2="453.19" y2="73.77"/>
		</g>
		<g id="ARC_28_">
			<path class="st3" d="M414.92,35.5c-0.78,0-1.42,0.63-1.42,1.42"/>
		</g>
		<g id="ARC_29_">
			<path class="st3" d="M453.19,36.92c0-0.78-0.63-1.42-1.42-1.42"/>
		</g>
		<g id="ARC_30_">
			<path class="st3" d="M413.5,73.77c0,0.78,0.63,1.42,1.42,1.42"/>
		</g>
		<g id="ARC_31_">
			<path class="st3" d="M451.77,75.19c0.78,0,1.42-0.63,1.42-1.42"/>
		</g>
		<g id="LINE_32_">
			<line class="st3" x1="468.92" y1="35.5" x2="505.77" y2="35.5"/>
		</g>
		<g id="LINE_33_">
			<line class="st3" x1="468.92" y1="75.19" x2="505.77" y2="75.19"/>
		</g>
		<g id="LINE_34_">
			<line class="st3" x1="467.5" y1="36.92" x2="467.5" y2="73.77"/>
		</g>
		<g id="LINE_35_">
			<line class="st3" x1="507.19" y1="36.92" x2="507.19" y2="73.77"/>
		</g>
		<g id="ARC_32_">
			<path class="st3" d="M468.92,35.5c-0.78,0-1.42,0.63-1.42,1.42"/>
		</g>
		<g id="ARC_33_">
			<path class="st3" d="M507.19,36.92c0-0.78-0.63-1.42-1.42-1.42"/>
		</g>
		<g id="ARC_34_">
			<path class="st3" d="M467.5,73.77c0,0.78,0.63,1.42,1.42,1.42"/>
		</g>
		<g id="ARC_35_">
			<path class="st3" d="M505.77,75.19c0.78,0,1.42-0.63,1.42-1.42"/>
		</g>
		<g id="LINE_36_">
			<line class="st3" x1="522.92" y1="35.5" x2="559.77" y2="35.5"/>
		</g>
		<g id="LINE_37_">
			<line class="st3" x1="522.92" y1="75.19" x2="559.77" y2="75.19"/>
		</g>
		<g id="LINE_38_">
			<line class="st3" x1="521.5" y1="36.92" x2="521.5" y2="73.77"/>
		</g>
		<g id="LINE_39_">
			<line class="st3" x1="561.19" y1="36.92" x2="561.19" y2="73.77"/>
		</g>
		<g id="ARC_36_">
			<path class="st3" d="M522.92,35.5c-0.78,0-1.42,0.63-1.42,1.42"/>
		</g>
		<g id="ARC_37_">
			<path class="st3" d="M561.19,36.92c0-0.78-0.63-1.42-1.42-1.42"/>
		</g>
		<g id="ARC_38_">
			<path class="st3" d="M521.5,73.77c0,0.78,0.63,1.42,1.42,1.42"/>
		</g>
		<g id="ARC_39_">
			<path class="st3" d="M559.77,75.19c0.78,0,1.42-0.63,1.42-1.42"/>
		</g>
		<g id="LINE_40_">
			<line class="st3" x1="576.92" y1="35.5" x2="613.77" y2="35.5"/>
		</g>
		<g id="LINE_41_">
			<line class="st3" x1="576.92" y1="75.19" x2="613.77" y2="75.19"/>
		</g>
		<g id="LINE_42_">
			<line class="st3" x1="575.5" y1="36.92" x2="575.5" y2="73.77"/>
		</g>
		<g id="LINE_43_">
			<line class="st3" x1="615.19" y1="36.92" x2="615.19" y2="73.77"/>
		</g>
		<g id="ARC_40_">
			<path class="st3" d="M576.92,35.5c-0.78,0-1.42,0.63-1.42,1.42"/>
		</g>
		<g id="ARC_41_">
			<path class="st3" d="M615.19,36.92c0-0.78-0.63-1.42-1.42-1.42"/>
		</g>
		<g id="ARC_42_">
			<path class="st3" d="M575.5,73.77c0,0.78,0.63,1.42,1.42,1.42"/>
		</g>
		<g id="ARC_43_">
			<path class="st3" d="M613.77,75.19c0.78,0,1.42-0.63,1.42-1.42"/>
		</g>
		<g id="LINE_44_">
			<line class="st3" x1="630.92" y1="35.5" x2="667.77" y2="35.5"/>
		</g>
		<g id="LINE_45_">
			<line class="st3" x1="630.92" y1="75.19" x2="667.77" y2="75.19"/>
		</g>
		<g id="LINE_46_">
			<line class="st3" x1="629.5" y1="36.92" x2="629.5" y2="73.77"/>
		</g>
		<g id="LINE_47_">
			<line class="st3" x1="669.19" y1="36.92" x2="669.19" y2="73.77"/>
		</g>
		<g id="ARC_44_">
			<path class="st3" d="M630.92,35.5c-0.78,0-1.42,0.63-1.42,1.42"/>
		</g>
		<g id="ARC_45_">
			<path class="st3" d="M669.19,36.92c0-0.78-0.63-1.42-1.42-1.42"/>
		</g>
		<g id="ARC_46_">
			<path class="st3" d="M629.5,73.77c0,0.78,0.63,1.42,1.42,1.42"/>
		</g>
		<g id="ARC_47_">
			<path class="st3" d="M667.77,75.19c0.78,0,1.42-0.63,1.42-1.42"/>
		</g>
		<g id="LINE_48_">
			<line class="st3" x1="36.92" y1="89.5" x2="73.77" y2="89.5"/>
		</g>
		<g id="LINE_49_">
			<line class="st3" x1="36.92" y1="129.19" x2="73.77" y2="129.19"/>
		</g>
		<g id="LINE_50_">
			<line class="st3" x1="35.5" y1="90.92" x2="35.5" y2="127.77"/>
		</g>
		<g id="LINE_51_">
			<line class="st3" x1="75.19" y1="90.92" x2="75.19" y2="127.77"/>
		</g>
		<g id="ARC_48_">
			<path class="st3" d="M36.92,89.5c-0.78,0-1.42,0.63-1.42,1.42"/>
		</g>
		<g id="ARC_49_">
			<path class="st3" d="M75.19,90.92c0-0.78-0.63-1.42-1.42-1.42"/>
		</g>
		<g id="ARC_50_">
			<path class="st3" d="M35.5,127.77c0,0.78,0.63,1.42,1.42,1.42"/>
		</g>
		<g id="ARC_51_">
			<path class="st3" d="M73.77,129.19c0.78,0,1.42-0.63,1.42-1.42"/>
		</g>
		<g id="LINE_52_">
			<line class="st3" x1="90.92" y1="89.5" x2="127.77" y2="89.5"/>
		</g>
		<g id="LINE_53_">
			<line class="st3" x1="90.92" y1="129.19" x2="127.77" y2="129.19"/>
		</g>
		<g id="LINE_54_">
			<line class="st3" x1="89.5" y1="90.92" x2="89.5" y2="127.77"/>
		</g>
		<g id="LINE_55_">
			<line class="st3" x1="129.19" y1="90.92" x2="129.19" y2="127.77"/>
		</g>
		<g id="ARC_52_">
			<path class="st3" d="M90.92,89.5c-0.78,0-1.42,0.63-1.42,1.42"/>
		</g>
		<g id="ARC_53_">
			<path class="st3" d="M129.19,90.92c0-0.78-0.63-1.42-1.42-1.42"/>
		</g>
		<g id="ARC_54_">
			<path class="st3" d="M89.5,127.77c0,0.78,0.63,1.42,1.42,1.42"/>
		</g>
		<g id="ARC_55_">
			<path class="st3" d="M127.77,129.19c0.78,0,1.42-0.63,1.42-1.42"/>
		</g>
		<g id="LINE_20_">
			<line class="st3" x1="144.92" y1="89.5" x2="181.77" y2="89.5"/>
		</g>
		<g id="LINE_19_">
			<line class="st3" x1="144.92" y1="129.19" x2="181.77" y2="129.19"/>
		</g>
		<g id="LINE_18_">
			<line class="st3" x1="143.5" y1="90.92" x2="143.5" y2="127.77"/>
		</g>
		<g id="LINE_17_">
			<line class="st3" x1="183.19" y1="90.92" x2="183.19" y2="127.77"/>
		</g>
		<g id="ARC_20_">
			<path class="st3" d="M144.92,89.5c-0.78,0-1.42,0.63-1.42,1.42"/>
		</g>
		<g id="ARC_19_">
			<path class="st3" d="M183.19,90.92c0-0.78-0.63-1.42-1.42-1.42"/>
		</g>
		<g id="ARC_18_">
			<path class="st3" d="M143.5,127.77c0,0.78,0.63,1.42,1.42,1.42"/>
		</g>
		<g id="ARC_17_">
			<path class="st3" d="M181.77,129.19c0.78,0,1.42-0.63,1.42-1.42"/>
		</g>
		<g id="LINE_16_">
			<line class="st3" x1="198.92" y1="89.5" x2="235.77" y2="89.5"/>
		</g>
		<g id="LINE_15_">
			<line class="st3" x1="198.92" y1="129.19" x2="235.77" y2="129.19"/>
		</g>
		<g id="LINE_14_">
			<line class="st3" x1="197.5" y1="90.92" x2="197.5" y2="127.77"/>
		</g>
		<g id="LINE_13_">
			<line class="st3" x1="237.19" y1="90.92" x2="237.19" y2="127.77"/>
		</g>
		<g id="ARC_16_">
			<path class="st3" d="M198.92,89.5c-0.78,0-1.42,0.63-1.42,1.42"/>
		</g>
		<g id="ARC_15_">
			<path class="st3" d="M237.19,90.92c0-0.78-0.63-1.42-1.42-1.42"/>
		</g>
		<g id="ARC_14_">
			<path class="st3" d="M197.5,127.77c0,0.78,0.63,1.42,1.42,1.42"/>
		</g>
		<g id="ARC_13_">
			<path class="st3" d="M235.77,129.19c0.78,0,1.42-0.63,1.42-1.42"/>
		</g>
		<g id="LINE_64_">
			<line class="st3" x1="252.92" y1="89.5" x2="289.77" y2="89.5"/>
		</g>
		<g id="LINE_65_">
			<line class="st3" x1="252.92" y1="129.19" x2="289.77" y2="129.19"/>
		</g>
		<g id="LINE_66_">
			<line class="st3" x1="251.5" y1="90.92" x2="251.5" y2="127.77"/>
		</g>
		<g id="LINE_67_">
			<line class="st3" x1="291.19" y1="90.92" x2="291.19" y2="127.77"/>
		</g>
		<g id="ARC_64_">
			<path class="st3" d="M252.92,89.5c-0.78,0-1.42,0.63-1.42,1.42"/>
		</g>
		<g id="ARC_65_">
			<path class="st3" d="M291.19,90.92c0-0.78-0.63-1.42-1.42-1.42"/>
		</g>
		<g id="ARC_66_">
			<path class="st3" d="M251.5,127.77c0,0.78,0.63,1.42,1.42,1.42"/>
		</g>
		<g id="ARC_67_">
			<path class="st3" d="M289.77,129.19c0.78,0,1.42-0.63,1.42-1.42"/>
		</g>
		<g id="LINE_68_">
			<line class="st3" x1="306.92" y1="89.5" x2="343.77" y2="89.5"/>
		</g>
		<g id="LINE_69_">
			<line class="st3" x1="306.92" y1="129.19" x2="343.77" y2="129.19"/>
		</g>
		<g id="LINE_70_">
			<line class="st3" x1="305.5" y1="90.92" x2="305.5" y2="127.77"/>
		</g>
		<g id="LINE_71_">
			<line class="st3" x1="345.19" y1="90.92" x2="345.19" y2="127.77"/>
		</g>
		<g id="ARC_68_">
			<path class="st3" d="M306.92,89.5c-0.78,0-1.42,0.63-1.42,1.42"/>
		</g>
		<g id="ARC_69_">
			<path class="st3" d="M345.19,90.92c0-0.78-0.63-1.42-1.42-1.42"/>
		</g>
		<g id="ARC_70_">
			<path class="st3" d="M305.5,127.77c0,0.78,0.63,1.42,1.42,1.42"/>
		</g>
		<g id="ARC_71_">
			<path class="st3" d="M343.77,129.19c0.78,0,1.42-0.63,1.42-1.42"/>
		</g>
		<g id="LINE_72_">
			<line class="st3" x1="360.92" y1="89.5" x2="397.77" y2="89.5"/>
		</g>
		<g id="LINE_73_">
			<line class="st3" x1="360.92" y1="129.19" x2="397.77" y2="129.19"/>
		</g>
		<g id="LINE_74_">
			<line class="st3" x1="359.5" y1="90.92" x2="359.5" y2="127.77"/>
		</g>
		<g id="LINE_75_">
			<line class="st3" x1="399.19" y1="90.92" x2="399.19" y2="127.77"/>
		</g>
		<g id="ARC_72_">
			<path class="st3" d="M360.92,89.5c-0.78,0-1.42,0.63-1.42,1.42"/>
		</g>
		<g id="ARC_73_">
			<path class="st3" d="M399.19,90.92c0-0.78-0.63-1.42-1.42-1.42"/>
		</g>
		<g id="ARC_74_">
			<path class="st3" d="M359.5,127.77c0,0.78,0.63,1.42,1.42,1.42"/>
		</g>
		<g id="ARC_75_">
			<path class="st3" d="M397.77,129.19c0.78,0,1.42-0.63,1.42-1.42"/>
		</g>
		<g id="LINE_76_">
			<line class="st3" x1="414.92" y1="89.5" x2="451.77" y2="89.5"/>
		</g>
		<g id="LINE_77_">
			<line class="st3" x1="414.92" y1="129.19" x2="451.77" y2="129.19"/>
		</g>
		<g id="LINE_78_">
			<line class="st3" x1="413.5" y1="90.92" x2="413.5" y2="127.77"/>
		</g>
		<g id="LINE_79_">
			<line class="st3" x1="453.19" y1="90.92" x2="453.19" y2="127.77"/>
		</g>
		<g id="ARC_76_">
			<path class="st3" d="M414.92,89.5c-0.78,0-1.42,0.63-1.42,1.42"/>
		</g>
		<g id="ARC_77_">
			<path class="st3" d="M453.19,90.92c0-0.78-0.63-1.42-1.42-1.42"/>
		</g>
		<g id="ARC_78_">
			<path class="st3" d="M413.5,127.77c0,0.78,0.63,1.42,1.42,1.42"/>
		</g>
		<g id="ARC_79_">
			<path class="st3" d="M451.77,129.19c0.78,0,1.42-0.63,1.42-1.42"/>
		</g>
		<g id="LINE_80_">
			<line class="st3" x1="468.92" y1="89.5" x2="505.77" y2="89.5"/>
		</g>
		<g id="LINE_81_">
			<line class="st3" x1="468.92" y1="129.19" x2="505.77" y2="129.19"/>
		</g>
		<g id="LINE_82_">
			<line class="st3" x1="467.5" y1="90.92" x2="467.5" y2="127.77"/>
		</g>
		<g id="LINE_83_">
			<line class="st3" x1="507.19" y1="90.92" x2="507.19" y2="127.77"/>
		</g>
		<g id="ARC_80_">
			<path class="st3" d="M468.92,89.5c-0.78,0-1.42,0.63-1.42,1.42"/>
		</g>
		<g id="ARC_81_">
			<path class="st3" d="M507.19,90.92c0-0.78-0.63-1.42-1.42-1.42"/>
		</g>
		<g id="ARC_82_">
			<path class="st3" d="M467.5,127.77c0,0.78,0.63,1.42,1.42,1.42"/>
		</g>
		<g id="ARC_83_">
			<path class="st3" d="M505.77,129.19c0.78,0,1.42-0.63,1.42-1.42"/>
		</g>
		<g id="LINE_84_">
			<line class="st3" x1="522.92" y1="89.5" x2="559.77" y2="89.5"/>
		</g>
		<g id="LINE_85_">
			<line class="st3" x1="522.92" y1="129.19" x2="559.77" y2="129.19"/>
		</g>
		<g id="LINE_86_">
			<line class="st3" x1="521.5" y1="90.92" x2="521.5" y2="127.77"/>
		</g>
		<g id="LINE_87_">
			<line class="st3" x1="561.19" y1="90.92" x2="561.19" y2="127.77"/>
		</g>
		<g id="ARC_84_">
			<path class="st3" d="M522.92,89.5c-0.78,0-1.42,0.63-1.42,1.42"/>
		</g>
		<g id="ARC_85_">
			<path class="st3" d="M561.19,90.92c0-0.78-0.63-1.42-1.42-1.42"/>
		</g>
		<g id="ARC_86_">
			<path class="st3" d="M521.5,127.77c0,0.78,0.63,1.42,1.42,1.42"/>
		</g>
		<g id="ARC_87_">
			<path class="st3" d="M559.77,129.19c0.78,0,1.42-0.63,1.42-1.42"/>
		</g>
		<g id="LINE_88_">
			<line class="st3" x1="576.92" y1="89.5" x2="613.77" y2="89.5"/>
		</g>
		<g id="LINE_89_">
			<line class="st3" x1="576.92" y1="129.19" x2="613.77" y2="129.19"/>
		</g>
		<g id="LINE_90_">
			<line class="st3" x1="575.5" y1="90.92" x2="575.5" y2="127.77"/>
		</g>
		<g id="LINE_91_">
			<line class="st3" x1="615.19" y1="90.92" x2="615.19" y2="127.77"/>
		</g>
		<g id="ARC_88_">
			<path class="st3" d="M576.92,89.5c-0.78,0-1.42,0.63-1.42,1.42"/>
		</g>
		<g id="ARC_89_">
			<path class="st3" d="M615.19,90.92c0-0.78-0.63-1.42-1.42-1.42"/>
		</g>
		<g id="ARC_90_">
			<path class="st3" d="M575.5,127.77c0,0.78,0.63,1.42,1.42,1.42"/>
		</g>
		<g id="ARC_91_">
			<path class="st3" d="M613.77,129.19c0.78,0,1.42-0.63,1.42-1.42"/>
		</g>
		<g id="LINE_92_">
			<line class="st3" x1="630.92" y1="89.5" x2="667.77" y2="89.5"/>
		</g>
		<g id="LINE_93_">
			<line class="st3" x1="630.92" y1="129.19" x2="667.77" y2="129.19"/>
		</g>
		<g id="LINE_94_">
			<line class="st3" x1="629.5" y1="90.92" x2="629.5" y2="127.77"/>
		</g>
		<g id="LINE_95_">
			<line class="st3" x1="669.19" y1="90.92" x2="669.19" y2="127.77"/>
		</g>
		<g id="ARC_92_">
			<path class="st3" d="M630.92,89.5c-0.78,0-1.42,0.63-1.42,1.42"/>
		</g>
		<g id="ARC_93_">
			<path class="st3" d="M669.19,90.92c0-0.78-0.63-1.42-1.42-1.42"/>
		</g>
		<g id="ARC_94_">
			<path class="st3" d="M629.5,127.77c0,0.78,0.63,1.42,1.42,1.42"/>
		</g>
		<g id="ARC_95_">
			<path class="st3" d="M667.77,129.19c0.78,0,1.42-0.63,1.42-1.42"/>
		</g>
		<g id="LINE_96_">
			<line class="st3" x1="36.92" y1="143.5" x2="73.77" y2="143.5"/>
		</g>
		<g id="LINE_97_">
			<line class="st3" x1="36.92" y1="183.19" x2="73.77" y2="183.19"/>
		</g>
		<g id="LINE_98_">
			<line class="st3" x1="35.5" y1="144.92" x2="35.5" y2="181.77"/>
		</g>
		<g id="LINE_99_">
			<line class="st3" x1="75.19" y1="144.92" x2="75.19" y2="181.77"/>
		</g>
		<g id="ARC_96_">
			<path class="st3" d="M36.92,143.5c-0.78,0-1.42,0.63-1.42,1.42"/>
		</g>
		<g id="ARC_97_">
			<path class="st3" d="M75.19,144.92c0-0.78-0.63-1.42-1.42-1.42"/>
		</g>
		<g id="ARC_98_">
			<path class="st3" d="M35.5,181.77c0,0.78,0.63,1.42,1.42,1.42"/>
		</g>
		<g id="ARC_99_">
			<path class="st3" d="M73.77,183.19c0.78,0,1.42-0.63,1.42-1.42"/>
		</g>
		<g id="LINE_100_">
			<line class="st3" x1="90.92" y1="143.5" x2="127.77" y2="143.5"/>
		</g>
		<g id="LINE_101_">
			<line class="st3" x1="90.92" y1="183.19" x2="127.77" y2="183.19"/>
		</g>
		<g id="LINE_102_">
			<line class="st3" x1="89.5" y1="144.92" x2="89.5" y2="181.77"/>
		</g>
		<g id="LINE_103_">
			<line class="st3" x1="129.19" y1="144.92" x2="129.19" y2="181.77"/>
		</g>
		<g id="ARC_100_">
			<path class="st3" d="M90.92,143.5c-0.78,0-1.42,0.63-1.42,1.42"/>
		</g>
		<g id="ARC_101_">
			<path class="st3" d="M129.19,144.92c0-0.78-0.63-1.42-1.42-1.42"/>
		</g>
		<g id="ARC_102_">
			<path class="st3" d="M89.5,181.77c0,0.78,0.63,1.42,1.42,1.42"/>
		</g>
		<g id="ARC_103_">
			<path class="st3" d="M127.77,183.19c0.78,0,1.42-0.63,1.42-1.42"/>
		</g>
		<g id="LINE_104_">
			<line class="st3" x1="144.92" y1="143.5" x2="181.77" y2="143.5"/>
		</g>
		<g id="LINE_105_">
			<line class="st3" x1="144.92" y1="183.19" x2="181.77" y2="183.19"/>
		</g>
		<g id="LINE_106_">
			<line class="st3" x1="143.5" y1="144.92" x2="143.5" y2="181.77"/>
		</g>
		<g id="LINE_107_">
			<line class="st3" x1="183.19" y1="144.92" x2="183.19" y2="181.77"/>
		</g>
		<g id="ARC_104_">
			<path class="st3" d="M144.92,143.5c-0.78,0-1.42,0.63-1.42,1.42"/>
		</g>
		<g id="ARC_105_">
			<path class="st3" d="M183.19,144.92c0-0.78-0.63-1.42-1.42-1.42"/>
		</g>
		<g id="ARC_106_">
			<path class="st3" d="M143.5,181.77c0,0.78,0.63,1.42,1.42,1.42"/>
		</g>
		<g id="ARC_107_">
			<path class="st3" d="M181.77,183.19c0.78,0,1.42-0.63,1.42-1.42"/>
		</g>
		<g id="LINE_108_">
			<line class="st3" x1="198.92" y1="143.5" x2="235.77" y2="143.5"/>
		</g>
		<g id="LINE_109_">
			<line class="st3" x1="198.92" y1="183.19" x2="235.77" y2="183.19"/>
		</g>
		<g id="LINE_110_">
			<line class="st3" x1="197.5" y1="144.92" x2="197.5" y2="181.77"/>
		</g>
		<g id="LINE_111_">
			<line class="st3" x1="237.19" y1="144.92" x2="237.19" y2="181.77"/>
		</g>
		<g id="ARC_108_">
			<path class="st3" d="M198.92,143.5c-0.78,0-1.42,0.63-1.42,1.42"/>
		</g>
		<g id="ARC_109_">
			<path class="st3" d="M237.19,144.92c0-0.78-0.63-1.42-1.42-1.42"/>
		</g>
		<g id="ARC_110_">
			<path class="st3" d="M197.5,181.77c0,0.78,0.63,1.42,1.42,1.42"/>
		</g>
		<g id="ARC_111_">
			<path class="st3" d="M235.77,183.19c0.78,0,1.42-0.63,1.42-1.42"/>
		</g>
		<g id="LINE_112_">
			<line class="st3" x1="252.92" y1="143.5" x2="289.77" y2="143.5"/>
		</g>
		<g id="LINE_113_">
			<line class="st3" x1="252.92" y1="183.19" x2="289.77" y2="183.19"/>
		</g>
		<g id="LINE_114_">
			<line class="st3" x1="251.5" y1="144.92" x2="251.5" y2="181.77"/>
		</g>
		<g id="LINE_115_">
			<line class="st3" x1="291.19" y1="144.92" x2="291.19" y2="181.77"/>
		</g>
		<g id="ARC_112_">
			<path class="st3" d="M252.92,143.5c-0.78,0-1.42,0.63-1.42,1.42"/>
		</g>
		<g id="ARC_113_">
			<path class="st3" d="M291.19,144.92c0-0.78-0.63-1.42-1.42-1.42"/>
		</g>
		<g id="ARC_114_">
			<path class="st3" d="M251.5,181.77c0,0.78,0.63,1.42,1.42,1.42"/>
		</g>
		<g id="ARC_115_">
			<path class="st3" d="M289.77,183.19c0.78,0,1.42-0.63,1.42-1.42"/>
		</g>
		<g id="LINE_116_">
			<line class="st3" x1="306.92" y1="143.5" x2="343.77" y2="143.5"/>
		</g>
		<g id="LINE_117_">
			<line class="st3" x1="306.92" y1="183.19" x2="343.77" y2="183.19"/>
		</g>
		<g id="LINE_118_">
			<line class="st3" x1="305.5" y1="144.92" x2="305.5" y2="181.77"/>
		</g>
		<g id="LINE_119_">
			<line class="st3" x1="345.19" y1="144.92" x2="345.19" y2="181.77"/>
		</g>
		<g id="ARC_116_">
			<path class="st3" d="M306.92,143.5c-0.78,0-1.42,0.63-1.42,1.42"/>
		</g>
		<g id="ARC_117_">
			<path class="st3" d="M345.19,144.92c0-0.78-0.63-1.42-1.42-1.42"/>
		</g>
		<g id="ARC_118_">
			<path class="st3" d="M305.5,181.77c0,0.78,0.63,1.42,1.42,1.42"/>
		</g>
		<g id="ARC_119_">
			<path class="st3" d="M343.77,183.19c0.78,0,1.42-0.63,1.42-1.42"/>
		</g>
		<g id="LINE_120_">
			<line class="st3" x1="360.92" y1="143.5" x2="397.77" y2="143.5"/>
		</g>
		<g id="LINE_121_">
			<line class="st3" x1="360.92" y1="183.19" x2="397.77" y2="183.19"/>
		</g>
		<g id="LINE_122_">
			<line class="st3" x1="359.5" y1="144.92" x2="359.5" y2="181.77"/>
		</g>
		<g id="LINE_123_">
			<line class="st3" x1="399.19" y1="144.92" x2="399.19" y2="181.77"/>
		</g>
		<g id="ARC_120_">
			<path class="st3" d="M360.92,143.5c-0.78,0-1.42,0.63-1.42,1.42"/>
		</g>
		<g id="ARC_121_">
			<path class="st3" d="M399.19,144.92c0-0.78-0.63-1.42-1.42-1.42"/>
		</g>
		<g id="ARC_122_">
			<path class="st3" d="M359.5,181.77c0,0.78,0.63,1.42,1.42,1.42"/>
		</g>
		<g id="ARC_123_">
			<path class="st3" d="M397.77,183.19c0.78,0,1.42-0.63,1.42-1.42"/>
		</g>
		<g id="LINE_124_">
			<line class="st3" x1="414.92" y1="143.5" x2="451.77" y2="143.5"/>
		</g>
		<g id="LINE_125_">
			<line class="st3" x1="414.92" y1="183.19" x2="451.77" y2="183.19"/>
		</g>
		<g id="LINE_126_">
			<line class="st3" x1="413.5" y1="144.92" x2="413.5" y2="181.77"/>
		</g>
		<g id="LINE_127_">
			<line class="st3" x1="453.19" y1="144.92" x2="453.19" y2="181.77"/>
		</g>
		<g id="ARC_124_">
			<path class="st3" d="M414.92,143.5c-0.78,0-1.42,0.63-1.42,1.42"/>
		</g>
		<g id="ARC_125_">
			<path class="st3" d="M453.19,144.92c0-0.78-0.63-1.42-1.42-1.42"/>
		</g>
		<g id="ARC_126_">
			<path class="st3" d="M413.5,181.77c0,0.78,0.63,1.42,1.42,1.42"/>
		</g>
		<g id="ARC_127_">
			<path class="st3" d="M451.77,183.19c0.78,0,1.42-0.63,1.42-1.42"/>
		</g>
		<g id="LINE_128_">
			<line class="st3" x1="468.92" y1="143.5" x2="505.77" y2="143.5"/>
		</g>
		<g id="LINE_129_">
			<line class="st3" x1="468.92" y1="183.19" x2="505.77" y2="183.19"/>
		</g>
		<g id="LINE_130_">
			<line class="st3" x1="467.5" y1="144.92" x2="467.5" y2="181.77"/>
		</g>
		<g id="LINE_131_">
			<line class="st3" x1="507.19" y1="144.92" x2="507.19" y2="181.77"/>
		</g>
		<g id="ARC_128_">
			<path class="st3" d="M468.92,143.5c-0.78,0-1.42,0.63-1.42,1.42"/>
		</g>
		<g id="ARC_129_">
			<path class="st3" d="M507.19,144.92c0-0.78-0.63-1.42-1.42-1.42"/>
		</g>
		<g id="ARC_130_">
			<path class="st3" d="M467.5,181.77c0,0.78,0.63,1.42,1.42,1.42"/>
		</g>
		<g id="ARC_131_">
			<path class="st3" d="M505.77,183.19c0.78,0,1.42-0.63,1.42-1.42"/>
		</g>
		<g id="LINE_132_">
			<line class="st3" x1="522.92" y1="143.5" x2="559.77" y2="143.5"/>
		</g>
		<g id="LINE_133_">
			<line class="st3" x1="522.92" y1="183.19" x2="559.77" y2="183.19"/>
		</g>
		<g id="LINE_134_">
			<line class="st3" x1="521.5" y1="144.92" x2="521.5" y2="181.77"/>
		</g>
		<g id="LINE_135_">
			<line class="st3" x1="561.19" y1="144.92" x2="561.19" y2="181.77"/>
		</g>
		<g id="ARC_132_">
			<path class="st3" d="M522.92,143.5c-0.78,0-1.42,0.63-1.42,1.42"/>
		</g>
		<g id="ARC_133_">
			<path class="st3" d="M561.19,144.92c0-0.78-0.63-1.42-1.42-1.42"/>
		</g>
		<g id="ARC_134_">
			<path class="st3" d="M521.5,181.77c0,0.78,0.63,1.42,1.42,1.42"/>
		</g>
		<g id="ARC_135_">
			<path class="st3" d="M559.77,183.19c0.78,0,1.42-0.63,1.42-1.42"/>
		</g>
		<g id="LINE_136_">
			<line class="st3" x1="576.92" y1="143.5" x2="613.77" y2="143.5"/>
		</g>
		<g id="LINE_137_">
			<line class="st3" x1="576.92" y1="183.19" x2="613.77" y2="183.19"/>
		</g>
		<g id="LINE_138_">
			<line class="st3" x1="575.5" y1="144.92" x2="575.5" y2="181.77"/>
		</g>
		<g id="LINE_139_">
			<line class="st3" x1="615.19" y1="144.92" x2="615.19" y2="181.77"/>
		</g>
		<g id="ARC_136_">
			<path class="st3" d="M576.92,143.5c-0.78,0-1.42,0.63-1.42,1.42"/>
		</g>
		<g id="ARC_137_">
			<path class="st3" d="M615.19,144.92c0-0.78-0.63-1.42-1.42-1.42"/>
		</g>
		<g id="ARC_138_">
			<path class="st3" d="M575.5,181.77c0,0.78,0.63,1.42,1.42,1.42"/>
		</g>
		<g id="ARC_139_">
			<path class="st3" d="M613.77,183.19c0.78,0,1.42-0.63,1.42-1.42"/>
		</g>
		<g id="LINE_140_">
			<line class="st3" x1="630.92" y1="143.5" x2="667.77" y2="143.5"/>
		</g>
		<g id="LINE_141_">
			<line class="st3" x1="630.92" y1="183.19" x2="667.77" y2="183.19"/>
		</g>
		<g id="LINE_142_">
			<line class="st3" x1="629.5" y1="144.92" x2="629.5" y2="181.77"/>
		</g>
		<g id="LINE_143_">
			<line class="st3" x1="669.19" y1="144.92" x2="669.19" y2="181.77"/>
		</g>
		<g id="ARC_140_">
			<path class="st3" d="M630.92,143.5c-0.78,0-1.42,0.63-1.42,1.42"/>
		</g>
		<g id="ARC_141_">
			<path class="st3" d="M669.19,144.92c0-0.78-0.63-1.42-1.42-1.42"/>
		</g>
		<g id="ARC_142_">
			<path class="st3" d="M629.5,181.77c0,0.78,0.63,1.42,1.42,1.42"/>
		</g>
		<g id="ARC_143_">
			<path class="st3" d="M667.77,183.19c0.78,0,1.42-0.63,1.42-1.42"/>
		</g>
		<g id="LINE_144_">
			<line class="st3" x1="36.92" y1="197.5" x2="73.77" y2="197.5"/>
		</g>
		<g id="LINE_145_">
			<line class="st3" x1="36.92" y1="237.19" x2="73.77" y2="237.19"/>
		</g>
		<g id="LINE_146_">
			<line class="st3" x1="35.5" y1="198.92" x2="35.5" y2="235.77"/>
		</g>
		<g id="LINE_147_">
			<line class="st3" x1="75.19" y1="198.92" x2="75.19" y2="235.77"/>
		</g>
		<g id="ARC_144_">
			<path class="st3" d="M36.92,197.5c-0.78,0-1.42,0.63-1.42,1.42"/>
		</g>
		<g id="ARC_145_">
			<path class="st3" d="M75.19,198.92c0-0.78-0.63-1.42-1.42-1.42"/>
		</g>
		<g id="ARC_146_">
			<path class="st3" d="M35.5,235.77c0,0.78,0.63,1.42,1.42,1.42"/>
		</g>
		<g id="ARC_147_">
			<path class="st3" d="M73.77,237.19c0.78,0,1.42-0.63,1.42-1.42"/>
		</g>
		<g id="LINE_148_">
			<line class="st3" x1="90.92" y1="197.5" x2="127.77" y2="197.5"/>
		</g>
		<g id="LINE_149_">
			<line class="st3" x1="90.92" y1="237.19" x2="127.77" y2="237.19"/>
		</g>
		<g id="LINE_150_">
			<line class="st3" x1="89.5" y1="198.92" x2="89.5" y2="235.77"/>
		</g>
		<g id="LINE_151_">
			<line class="st3" x1="129.19" y1="198.92" x2="129.19" y2="235.77"/>
		</g>
		<g id="ARC_148_">
			<path class="st3" d="M90.92,197.5c-0.78,0-1.42,0.63-1.42,1.42"/>
		</g>
		<g id="ARC_149_">
			<path class="st3" d="M129.19,198.92c0-0.78-0.63-1.42-1.42-1.42"/>
		</g>
		<g id="ARC_150_">
			<path class="st3" d="M89.5,235.77c0,0.78,0.63,1.42,1.42,1.42"/>
		</g>
		<g id="ARC_151_">
			<path class="st3" d="M127.77,237.19c0.78,0,1.42-0.63,1.42-1.42"/>
		</g>
		<g id="LINE_152_">
			<line class="st3" x1="144.92" y1="197.5" x2="181.77" y2="197.5"/>
		</g>
		<g id="LINE_153_">
			<line class="st3" x1="144.92" y1="237.19" x2="181.77" y2="237.19"/>
		</g>
		<g id="LINE_154_">
			<line class="st3" x1="143.5" y1="198.92" x2="143.5" y2="235.77"/>
		</g>
		<g id="LINE_155_">
			<line class="st3" x1="183.19" y1="198.92" x2="183.19" y2="235.77"/>
		</g>
		<g id="ARC_152_">
			<path class="st3" d="M144.92,197.5c-0.78,0-1.42,0.63-1.42,1.42"/>
		</g>
		<g id="ARC_153_">
			<path class="st3" d="M183.19,198.92c0-0.78-0.63-1.42-1.42-1.42"/>
		</g>
		<g id="ARC_154_">
			<path class="st3" d="M143.5,235.77c0,0.78,0.63,1.42,1.42,1.42"/>
		</g>
		<g id="ARC_155_">
			<path class="st3" d="M181.77,237.19c0.78,0,1.42-0.63,1.42-1.42"/>
		</g>
		<g id="LINE_156_">
			<line class="st3" x1="198.92" y1="197.5" x2="235.77" y2="197.5"/>
		</g>
		<g id="LINE_157_">
			<line class="st3" x1="198.92" y1="237.19" x2="235.77" y2="237.19"/>
		</g>
		<g id="LINE_158_">
			<line class="st3" x1="197.5" y1="198.92" x2="197.5" y2="235.77"/>
		</g>
		<g id="LINE_159_">
			<line class="st3" x1="237.19" y1="198.92" x2="237.19" y2="235.77"/>
		</g>
		<g id="ARC_156_">
			<path class="st3" d="M198.92,197.5c-0.78,0-1.42,0.63-1.42,1.42"/>
		</g>
		<g id="ARC_157_">
			<path class="st3" d="M237.19,198.92c0-0.78-0.63-1.42-1.42-1.42"/>
		</g>
		<g id="ARC_158_">
			<path class="st3" d="M197.5,235.77c0,0.78,0.63,1.42,1.42,1.42"/>
		</g>
		<g id="ARC_159_">
			<path class="st3" d="M235.77,237.19c0.78,0,1.42-0.63,1.42-1.42"/>
		</g>
		<g id="LINE_160_">
			<line class="st3" x1="252.92" y1="197.5" x2="289.77" y2="197.5"/>
		</g>
		<g id="LINE_161_">
			<line class="st3" x1="252.92" y1="237.19" x2="289.77" y2="237.19"/>
		</g>
		<g id="LINE_162_">
			<line class="st3" x1="251.5" y1="198.92" x2="251.5" y2="235.77"/>
		</g>
		<g id="LINE_163_">
			<line class="st3" x1="291.19" y1="198.92" x2="291.19" y2="235.77"/>
		</g>
		<g id="ARC_160_">
			<path class="st3" d="M252.92,197.5c-0.78,0-1.42,0.63-1.42,1.42"/>
		</g>
		<g id="ARC_161_">
			<path class="st3" d="M291.19,198.92c0-0.78-0.63-1.42-1.42-1.42"/>
		</g>
		<g id="ARC_162_">
			<path class="st3" d="M251.5,235.77c0,0.78,0.63,1.42,1.42,1.42"/>
		</g>
		<g id="ARC_163_">
			<path class="st3" d="M289.77,237.19c0.78,0,1.42-0.63,1.42-1.42"/>
		</g>
		<g id="LINE_164_">
			<line class="st3" x1="333.92" y1="197.5" x2="370.77" y2="197.5"/>
		</g>
		<g id="LINE_165_">
			<line class="st3" x1="333.92" y1="237.19" x2="370.77" y2="237.19"/>
		</g>
		<g id="LINE_166_">
			<line class="st3" x1="332.5" y1="198.92" x2="332.5" y2="235.77"/>
		</g>
		<g id="LINE_167_">
			<line class="st3" x1="372.19" y1="198.92" x2="372.19" y2="235.77"/>
		</g>
		<g id="ARC_164_">
			<path class="st3" d="M333.92,197.5c-0.78,0-1.42,0.63-1.42,1.42"/>
		</g>
		<g id="ARC_165_">
			<path class="st3" d="M372.19,198.92c0-0.78-0.63-1.42-1.42-1.42"/>
		</g>
		<g id="ARC_166_">
			<path class="st3" d="M332.5,235.77c0,0.78,0.63,1.42,1.42,1.42"/>
		</g>
		<g id="ARC_167_">
			<path class="st3" d="M370.77,237.19c0.78,0,1.42-0.63,1.42-1.42"/>
		</g>
		<g id="LINE_12_">
			<line class="st3" x1="414.92" y1="197.5" x2="451.77" y2="197.5"/>
		</g>
		<g id="LINE_11_">
			<line class="st3" x1="414.92" y1="237.19" x2="451.77" y2="237.19"/>
		</g>
		<g id="LINE_10_">
			<line class="st3" x1="413.5" y1="198.92" x2="413.5" y2="235.77"/>
		</g>
		<g id="LINE_9_">
			<line class="st3" x1="453.19" y1="198.92" x2="453.19" y2="235.77"/>
		</g>
		<g id="ARC_12_">
			<path class="st3" d="M414.92,197.5c-0.78,0-1.42,0.63-1.42,1.42"/>
		</g>
		<g id="ARC_11_">
			<path class="st3" d="M453.19,198.92c0-0.78-0.63-1.42-1.42-1.42"/>
		</g>
		<g id="ARC_10_">
			<path class="st3" d="M413.5,235.77c0,0.78,0.63,1.42,1.42,1.42"/>
		</g>
		<g id="ARC_9_">
			<path class="st3" d="M451.77,237.19c0.78,0,1.42-0.63,1.42-1.42"/>
		</g>
		<g id="LINE_180_">
			<line class="st3" x1="468.92" y1="197.5" x2="505.77" y2="197.5"/>
		</g>
		<g id="LINE_181_">
			<line class="st3" x1="468.92" y1="237.19" x2="505.77" y2="237.19"/>
		</g>
		<g id="LINE_182_">
			<line class="st3" x1="467.5" y1="198.92" x2="467.5" y2="235.77"/>
		</g>
		<g id="LINE_183_">
			<line class="st3" x1="507.19" y1="198.92" x2="507.19" y2="235.77"/>
		</g>
		<g id="ARC_180_">
			<path class="st3" d="M468.92,197.5c-0.78,0-1.42,0.63-1.42,1.42"/>
		</g>
		<g id="ARC_181_">
			<path class="st3" d="M507.19,198.92c0-0.78-0.63-1.42-1.42-1.42"/>
		</g>
		<g id="ARC_182_">
			<path class="st3" d="M467.5,235.77c0,0.78,0.63,1.42,1.42,1.42"/>
		</g>
		<g id="ARC_183_">
			<path class="st3" d="M505.77,237.19c0.78,0,1.42-0.63,1.42-1.42"/>
		</g>
		<g id="LINE_8_">
			<line class="st3" x1="522.92" y1="197.5" x2="559.77" y2="197.5"/>
		</g>
		<g id="LINE_7_">
			<line class="st3" x1="522.92" y1="237.19" x2="559.77" y2="237.19"/>
		</g>
		<g id="LINE_6_">
			<line class="st3" x1="521.5" y1="198.92" x2="521.5" y2="235.77"/>
		</g>
		<g id="LINE_5_">
			<line class="st3" x1="561.19" y1="198.92" x2="561.19" y2="235.77"/>
		</g>
		<g id="ARC_8_">
			<path class="st3" d="M522.92,197.5c-0.78,0-1.42,0.63-1.42,1.42"/>
		</g>
		<g id="ARC_7_">
			<path class="st3" d="M561.19,198.92c0-0.78-0.63-1.42-1.42-1.42"/>
		</g>
		<g id="ARC_6_">
			<path class="st3" d="M521.5,235.77c0,0.78,0.63,1.42,1.42,1.42"/>
		</g>
		<g id="ARC_5_">
			<path class="st3" d="M559.77,237.19c0.78,0,1.42-0.63,1.42-1.42"/>
		</g>
		<g id="LINE_4_">
			<line class="st3" x1="576.92" y1="197.5" x2="613.77" y2="197.5"/>
		</g>
		<g id="LINE_3_">
			<line class="st3" x1="576.92" y1="237.19" x2="613.77" y2="237.19"/>
		</g>
		<g id="LINE_2_">
			<line class="st3" x1="575.5" y1="198.92" x2="575.5" y2="235.77"/>
		</g>
		<g id="LINE_1_">
			<line class="st3" x1="615.19" y1="198.92" x2="615.19" y2="235.77"/>
		</g>
		<g id="ARC_4_">
			<path class="st3" d="M576.92,197.5c-0.78,0-1.42,0.63-1.42,1.42"/>
		</g>
		<g id="ARC_3_">
			<path class="st3" d="M615.19,198.92c0-0.78-0.63-1.42-1.42-1.42"/>
		</g>
		<g id="ARC_2_">
			<path class="st3" d="M575.5,235.77c0,0.78,0.63,1.42,1.42,1.42"/>
		</g>
		<g id="ARC_1_">
			<path class="st3" d="M613.77,237.19c0.78,0,1.42-0.63,1.42-1.42"/>
		</g>
		<g id="LINE_192_">
			<line class="st3" x1="630.92" y1="197.5" x2="667.77" y2="197.5"/>
		</g>
		<g id="LINE_193_">
			<line class="st3" x1="630.92" y1="237.19" x2="667.77" y2="237.19"/>
		</g>
		<g id="LINE_194_">
			<line class="st3" x1="629.5" y1="198.92" x2="629.5" y2="235.77"/>
		</g>
		<g id="LINE_195_">
			<line class="st3" x1="669.19" y1="198.92" x2="669.19" y2="235.77"/>
		</g>
		<g id="ARC_192_">
			<path class="st3" d="M630.92,197.5c-0.78,0-1.42,0.63-1.42,1.42"/>
		</g>
		<g id="ARC_193_">
			<path class="st3" d="M669.19,198.92c0-0.78-0.63-1.42-1.42-1.42"/>
		</g>
		<g id="ARC_194_">
			<path class="st3" d="M629.5,235.77c0,0.78,0.63,1.42,1.42,1.42"/>
		</g>
		<g id="ARC_195_">
			<path class="st3" d="M667.77,237.19c0.78,0,1.42-0.63,1.42-1.42"/>
		</g>
	</g>
</g>
</svg>
