<?xml version="1.0" encoding="utf-8"?>
<!-- Generator: Adobe Illustrator 24.0.2, SVG Export Plug-In . SVG Version: 6.00 Build 0)  -->
<svg version="1.1" xmlns="http://www.w3.org/2000/svg" xmlns:xlink="http://www.w3.org/1999/xlink" x="0px" y="0px"
	 viewBox="0 0 758.69 272.69" style="enable-background:new 0 0 758.69 272.69;" xml:space="preserve">
<style type="text/css">
	.st0{fill:none;}
	.st1{fill:none;stroke:#969696;stroke-miterlimit:10;}
	.st2{fill:none;stroke:#000000;stroke-miterlimit:10;}
	.st3{fill:none;stroke:#FBD4E0;stroke-width:0.7087;stroke-linecap:round;stroke-linejoin:round;stroke-miterlimit:10;}
</style>
<symbol  id="_x31_00u" viewBox="-27 -27 54 54">
	<rect x="-27" y="-27" class="st0" width="54" height="54"/>
	<g>
		<path class="st1" d="M18-14.4c0-1.98-1.62-3.6-3.6-3.6h-28.8c-1.98,0-3.6,1.62-3.6,3.6v28.8c0,1.98,1.62,3.6,3.6,3.6h28.8
			c1.98,0,3.6-1.62,3.6-3.6V-14.4z"/>
	</g>
	<rect x="-25.8" y="-25.8" class="st2" width="51.59" height="51.59"/>
</symbol>
<symbol  id="_x31_25u" viewBox="-33.75 -27 67.5 54">
	<g>
		<path class="st1" d="M24.75-14.4c0-1.98-1.62-3.6-3.6-3.6h-42.3c-1.98,0-3.6,1.62-3.6,3.6v28.8c0,1.98,1.62,3.6,3.6,3.6h42.3
			c1.98,0,3.6-1.62,3.6-3.6V-14.4z"/>
	</g>
	<rect x="-33.75" y="-27" class="st0" width="67.5" height="54"/>
	<rect x="-32.55" y="-25.8" class="st2" width="65.09" height="51.59"/>
</symbol>
<symbol  id="_x31_50u" viewBox="-40.5 -27 81 54">
	<g>
		<path class="st1" d="M31.5-14.4c0-1.98-1.62-3.6-3.6-3.6h-55.8c-1.98,0-3.6,1.62-3.6,3.6v28.8c0,1.98,1.62,3.6,3.6,3.6h55.8
			c1.98,0,3.6-1.62,3.6-3.6V-14.4z"/>
	</g>
	<rect x="-40.5" y="-27" class="st0" width="81" height="54"/>
	<rect x="-39.3" y="-25.8" class="st2" width="78.59" height="51.59"/>
</symbol>
<symbol  id="_x31_75u" viewBox="-47.25 -27 94.5 54">
	<g>
		<path class="st1" d="M38.25-14.4c0-1.98-1.62-3.6-3.6-3.6h-69.3c-1.98,0-3.6,1.62-3.6,3.6v28.8c0,1.98,1.62,3.6,3.6,3.6h69.3
			c1.98,0,3.6-1.62,3.6-3.6V-14.4z"/>
	</g>
	<rect x="-47.25" y="-27" class="st0" width="94.5" height="54"/>
	<rect x="-46.05" y="-25.8" class="st2" width="92.09" height="51.59"/>
</symbol>
<symbol  id="_x32_25u" viewBox="-60.75 -27 121.5 54">
	<g>
		<path class="st1" d="M51.75-14.4c0-1.98-1.62-3.6-3.6-3.6h-96.3c-1.98,0-3.6,1.62-3.6,3.6v28.8c0,1.98,1.62,3.6,3.6,3.6h96.3
			c1.98,0,3.6-1.62,3.6-3.6V-14.4z"/>
	</g>
	<rect x="-60.75" y="-27" class="st0" width="121.5" height="54"/>
	<rect x="-59.55" y="-25.8" class="st2" width="119.09" height="51.59"/>
</symbol>
<symbol  id="_x36_00u" viewBox="-162.07 -27 324.13 54">
	<g id="_x36_25u_1_">
		<rect x="-160.86" y="-25.8" class="st2" width="321.72" height="51.59"/>
		<g id="_x31_25u_2_">
			<rect x="-162.07" y="-27" class="st0" width="324.13" height="54"/>
		</g>
	</g>
</symbol>
<g id="keycap_outlines">
	
		<use xlink:href="#_x31_00u"  width="54" height="54" x="-27" y="-27" transform="matrix(1 0 0 -1 136.3465 55.3465)" style="overflow:visible;"/>
	
		<use xlink:href="#_x31_00u"  width="54" height="54" x="-27" y="-27" transform="matrix(1 0 0 -1 190.3465 55.3465)" style="overflow:visible;"/>
	
		<use xlink:href="#_x31_00u"  width="54" height="54" x="-27" y="-27" transform="matrix(1 0 0 -1 244.3465 55.3465)" style="overflow:visible;"/>
	
		<use xlink:href="#_x31_00u"  width="54" height="54" x="-27" y="-27" transform="matrix(1 0 0 -1 298.3465 55.3465)" style="overflow:visible;"/>
	
		<use xlink:href="#_x31_00u"  width="54" height="54" x="-27" y="-27" transform="matrix(1 0 0 -1 352.3464 55.3465)" style="overflow:visible;"/>
	
		<use xlink:href="#_x31_00u"  width="54" height="54" x="-27" y="-27" transform="matrix(1 0 0 -1 406.3464 55.3465)" style="overflow:visible;"/>
	
		<use xlink:href="#_x31_00u"  width="54" height="54" x="-27" y="-27" transform="matrix(1 0 0 -1 460.3464 55.3465)" style="overflow:visible;"/>
	
		<use xlink:href="#_x31_00u"  width="54" height="54" x="-27" y="-27" transform="matrix(1 0 0 -1 514.3464 55.3465)" style="overflow:visible;"/>
	
		<use xlink:href="#_x31_00u"  width="54" height="54" x="-27" y="-27" transform="matrix(1 0 0 -1 568.3464 55.3465)" style="overflow:visible;"/>
	
		<use xlink:href="#_x31_00u"  width="54" height="54" x="-27" y="-27" transform="matrix(1 0 0 -1 622.3464 55.3465)" style="overflow:visible;"/>
	
		<use xlink:href="#_x31_00u"  width="54" height="54" x="-27" y="-27" transform="matrix(1 0 0 -1 149.8465 109.3465)" style="overflow:visible;"/>
	
		<use xlink:href="#_x31_00u"  width="54" height="54" x="-27" y="-27" transform="matrix(1 0 0 -1 203.8465 109.3465)" style="overflow:visible;"/>
	
		<use xlink:href="#_x31_00u"  width="54" height="54" x="-27" y="-27" transform="matrix(1 0 0 -1 257.8465 109.3465)" style="overflow:visible;"/>
	
		<use xlink:href="#_x31_00u"  width="54" height="54" x="-27" y="-27" transform="matrix(1 0 0 -1 311.8465 109.3465)" style="overflow:visible;"/>
	
		<use xlink:href="#_x31_00u"  width="54" height="54" x="-27" y="-27" transform="matrix(1 0 0 -1 365.8464 109.3465)" style="overflow:visible;"/>
	
		<use xlink:href="#_x31_00u"  width="54" height="54" x="-27" y="-27" transform="matrix(1 0 0 -1 419.8464 109.3465)" style="overflow:visible;"/>
	
		<use xlink:href="#_x31_00u"  width="54" height="54" x="-27" y="-27" transform="matrix(1 0 0 -1 473.8464 109.3465)" style="overflow:visible;"/>
	
		<use xlink:href="#_x31_00u"  width="54" height="54" x="-27" y="-27" transform="matrix(1 0 0 -1 527.8464 109.3465)" style="overflow:visible;"/>
	
		<use xlink:href="#_x31_00u"  width="54" height="54" x="-27" y="-27" transform="matrix(1 0 0 -1 581.8464 109.3465)" style="overflow:visible;"/>
	
		<use xlink:href="#_x31_00u"  width="54" height="54" x="-27" y="-27" transform="matrix(1 0 0 -1 176.8465 163.3465)" style="overflow:visible;"/>
	
		<use xlink:href="#_x31_00u"  width="54" height="54" x="-27" y="-27" transform="matrix(1 0 0 -1 230.8465 163.3465)" style="overflow:visible;"/>
	
		<use xlink:href="#_x31_00u"  width="54" height="54" x="-27" y="-27" transform="matrix(1 0 0 -1 284.8465 163.3465)" style="overflow:visible;"/>
	
		<use xlink:href="#_x31_00u"  width="54" height="54" x="-27" y="-27" transform="matrix(1 0 0 -1 338.8464 163.3465)" style="overflow:visible;"/>
	
		<use xlink:href="#_x31_00u"  width="54" height="54" x="-27" y="-27" transform="matrix(1 0 0 -1 392.8464 163.3465)" style="overflow:visible;"/>
	
		<use xlink:href="#_x31_00u"  width="54" height="54" x="-27" y="-27" transform="matrix(1 0 0 -1 446.8464 163.3465)" style="overflow:visible;"/>
	
		<use xlink:href="#_x31_00u"  width="54" height="54" x="-27" y="-27" transform="matrix(1 0 0 -1 500.8464 163.3465)" style="overflow:visible;"/>
	
		<use xlink:href="#_x31_00u"  width="54" height="54" x="-27" y="-27" transform="matrix(1 0 0 -1 554.8464 163.3465)" style="overflow:visible;"/>
	
		<use xlink:href="#_x31_00u"  width="54" height="54" x="-27" y="-27" transform="matrix(1 0 0 -1 703.3464 163.3465)" style="overflow:visible;"/>
	<g id="_x31_u">
	</g>
	<g id="_x31_u_1_">
	</g>
	<g id="_x31_u_2_">
	</g>
	<g id="_x31_u_3_">
	</g>
	<g id="_x31_u_4_">
	</g>
	
		<use xlink:href="#_x31_25u"  width="67.5" height="54" x="-33.75" y="-27" transform="matrix(1 0 0 -1 62.0965 217.3465)" style="overflow:visible;"/>
	
		<use xlink:href="#_x31_25u"  width="67.5" height="54" x="-33.75" y="-27" transform="matrix(1 0 0 -1 183.5965 217.3465)" style="overflow:visible;"/>
	
		<use xlink:href="#_x31_25u"  width="67.5" height="54" x="-33.75" y="-27" transform="matrix(1 0 0 -1 575.0964 217.3465)" style="overflow:visible;"/>
	
		<use xlink:href="#_x31_50u"  width="81" height="54" x="-40.5" y="-27" transform="matrix(1 0 0 -1 68.8465 55.3465)" style="overflow:visible;"/>
	
		<use xlink:href="#_x31_75u"  width="94.5" height="54" x="-47.25" y="-27" transform="matrix(1 0 0 -1 75.5965 109.3465)" style="overflow:visible;"/>
	
		<use xlink:href="#_x32_25u"  width="121.5" height="54" id="XMLID_1_" x="-60.75" y="-27" transform="matrix(1 0 0 -1 89.0965 163.3465)" style="overflow:visible;"/>
	
		<use xlink:href="#_x36_00u"  width="324.13" height="54" x="-162.07" y="-27" transform="matrix(1 0 0 -1 379.3686 217.3464)" style="overflow:visible;"/>
	
		<use xlink:href="#_x31_25u"  width="67.5" height="54" x="-33.75" y="-27" transform="matrix(1 0 0 -1 696.5964 217.3465)" style="overflow:visible;"/>
	
		<use xlink:href="#_x31_50u"  width="81" height="54" x="-40.5" y="-27" transform="matrix(1 0 0 -1 689.8464 55.3465)" style="overflow:visible;"/>
	
		<use xlink:href="#_x31_75u"  width="94.5" height="54" x="-47.25" y="-27" transform="matrix(1 0 0 -1 629.0964 163.3465)" style="overflow:visible;"/>
	
		<use xlink:href="#_x32_25u"  width="121.5" height="54" x="-60.75" y="-27" transform="matrix(1 0 0 -1 669.5964 109.3464)" style="overflow:visible;"/>
</g>
<g id="switch_cutouts">
	<g>
		<g id="LINE_399_">
			<line class="st3" x1="50.42" y1="35.5" x2="87.27" y2="35.5"/>
		</g>
		<g id="LINE_398_">
			<line class="st3" x1="50.42" y1="75.19" x2="87.27" y2="75.19"/>
		</g>
		<g id="LINE_397_">
			<line class="st3" x1="49" y1="36.92" x2="49" y2="73.77"/>
		</g>
		<g id="LINE_396_">
			<line class="st3" x1="88.69" y1="36.92" x2="88.69" y2="73.77"/>
		</g>
		<g id="ARC_399_">
			<path class="st3" d="M50.42,35.5c-0.78,0-1.42,0.63-1.42,1.42"/>
		</g>
		<g id="ARC_398_">
			<path class="st3" d="M88.69,36.92c0-0.78-0.63-1.42-1.42-1.42"/>
		</g>
		<g id="ARC_397_">
			<path class="st3" d="M49,73.77c0,0.78,0.63,1.42,1.42,1.42"/>
		</g>
		<g id="ARC_396_">
			<path class="st3" d="M87.27,75.19c0.78,0,1.42-0.63,1.42-1.42"/>
		</g>
		<g id="LINE_395_">
			<line class="st3" x1="117.92" y1="35.5" x2="154.77" y2="35.5"/>
		</g>
		<g id="LINE_394_">
			<line class="st3" x1="117.92" y1="75.19" x2="154.77" y2="75.19"/>
		</g>
		<g id="LINE_393_">
			<line class="st3" x1="116.5" y1="36.92" x2="116.5" y2="73.77"/>
		</g>
		<g id="LINE_392_">
			<line class="st3" x1="156.19" y1="36.92" x2="156.19" y2="73.77"/>
		</g>
		<g id="ARC_395_">
			<path class="st3" d="M117.92,35.5c-0.78,0-1.42,0.63-1.42,1.42"/>
		</g>
		<g id="ARC_394_">
			<path class="st3" d="M156.19,36.92c0-0.78-0.63-1.42-1.42-1.42"/>
		</g>
		<g id="ARC_393_">
			<path class="st3" d="M116.5,73.77c0,0.78,0.63,1.42,1.42,1.42"/>
		</g>
		<g id="ARC_392_">
			<path class="st3" d="M154.77,75.19c0.78,0,1.42-0.63,1.42-1.42"/>
		</g>
		<g id="LINE_391_">
			<line class="st3" x1="171.92" y1="35.5" x2="208.77" y2="35.5"/>
		</g>
		<g id="LINE_390_">
			<line class="st3" x1="171.92" y1="75.19" x2="208.77" y2="75.19"/>
		</g>
		<g id="LINE_389_">
			<line class="st3" x1="170.5" y1="36.92" x2="170.5" y2="73.77"/>
		</g>
		<g id="LINE_388_">
			<line class="st3" x1="210.19" y1="36.92" x2="210.19" y2="73.77"/>
		</g>
		<g id="ARC_391_">
			<path class="st3" d="M171.92,35.5c-0.78,0-1.42,0.63-1.42,1.42"/>
		</g>
		<g id="ARC_390_">
			<path class="st3" d="M210.19,36.92c0-0.78-0.63-1.42-1.42-1.42"/>
		</g>
		<g id="ARC_389_">
			<path class="st3" d="M170.5,73.77c0,0.78,0.63,1.42,1.42,1.42"/>
		</g>
		<g id="ARC_388_">
			<path class="st3" d="M208.77,75.19c0.78,0,1.42-0.63,1.42-1.42"/>
		</g>
		<g id="LINE_387_">
			<line class="st3" x1="225.92" y1="35.5" x2="262.77" y2="35.5"/>
		</g>
		<g id="LINE_386_">
			<line class="st3" x1="225.92" y1="75.19" x2="262.77" y2="75.19"/>
		</g>
		<g id="LINE_385_">
			<line class="st3" x1="224.5" y1="36.92" x2="224.5" y2="73.77"/>
		</g>
		<g id="LINE_384_">
			<line class="st3" x1="264.19" y1="36.92" x2="264.19" y2="73.77"/>
		</g>
		<g id="ARC_387_">
			<path class="st3" d="M225.92,35.5c-0.78,0-1.42,0.63-1.42,1.42"/>
		</g>
		<g id="ARC_386_">
			<path class="st3" d="M264.19,36.92c0-0.78-0.63-1.42-1.42-1.42"/>
		</g>
		<g id="ARC_385_">
			<path class="st3" d="M224.5,73.77c0,0.78,0.63,1.42,1.42,1.42"/>
		</g>
		<g id="ARC_384_">
			<path class="st3" d="M262.77,75.19c0.78,0,1.42-0.63,1.42-1.42"/>
		</g>
		<g id="LINE_383_">
			<line class="st3" x1="279.92" y1="35.5" x2="316.77" y2="35.5"/>
		</g>
		<g id="LINE_382_">
			<line class="st3" x1="279.92" y1="75.19" x2="316.77" y2="75.19"/>
		</g>
		<g id="LINE_381_">
			<line class="st3" x1="278.5" y1="36.92" x2="278.5" y2="73.77"/>
		</g>
		<g id="LINE_380_">
			<line class="st3" x1="318.19" y1="36.92" x2="318.19" y2="73.77"/>
		</g>
		<g id="ARC_383_">
			<path class="st3" d="M279.92,35.5c-0.78,0-1.42,0.63-1.42,1.42"/>
		</g>
		<g id="ARC_382_">
			<path class="st3" d="M318.19,36.92c0-0.78-0.63-1.42-1.42-1.42"/>
		</g>
		<g id="ARC_381_">
			<path class="st3" d="M278.5,73.77c0,0.78,0.63,1.42,1.42,1.42"/>
		</g>
		<g id="ARC_380_">
			<path class="st3" d="M316.77,75.19c0.78,0,1.42-0.63,1.42-1.42"/>
		</g>
		<g id="LINE_379_">
			<line class="st3" x1="333.92" y1="35.5" x2="370.77" y2="35.5"/>
		</g>
		<g id="LINE_378_">
			<line class="st3" x1="333.92" y1="75.19" x2="370.77" y2="75.19"/>
		</g>
		<g id="LINE_377_">
			<line class="st3" x1="332.5" y1="36.92" x2="332.5" y2="73.77"/>
		</g>
		<g id="LINE_376_">
			<line class="st3" x1="372.19" y1="36.92" x2="372.19" y2="73.77"/>
		</g>
		<g id="ARC_379_">
			<path class="st3" d="M333.92,35.5c-0.78,0-1.42,0.63-1.42,1.42"/>
		</g>
		<g id="ARC_378_">
			<path class="st3" d="M372.19,36.92c0-0.78-0.63-1.42-1.42-1.42"/>
		</g>
		<g id="ARC_377_">
			<path class="st3" d="M332.5,73.77c0,0.78,0.63,1.42,1.42,1.42"/>
		</g>
		<g id="ARC_376_">
			<path class="st3" d="M370.77,75.19c0.78,0,1.42-0.63,1.42-1.42"/>
		</g>
		<g id="LINE_375_">
			<line class="st3" x1="387.92" y1="35.5" x2="424.77" y2="35.5"/>
		</g>
		<g id="LINE_374_">
			<line class="st3" x1="387.92" y1="75.19" x2="424.77" y2="75.19"/>
		</g>
		<g id="LINE_373_">
			<line class="st3" x1="386.5" y1="36.92" x2="386.5" y2="73.77"/>
		</g>
		<g id="LINE_372_">
			<line class="st3" x1="426.19" y1="36.92" x2="426.19" y2="73.77"/>
		</g>
		<g id="ARC_375_">
			<path class="st3" d="M387.92,35.5c-0.78,0-1.42,0.63-1.42,1.42"/>
		</g>
		<g id="ARC_374_">
			<path class="st3" d="M426.19,36.92c0-0.78-0.63-1.42-1.42-1.42"/>
		</g>
		<g id="ARC_373_">
			<path class="st3" d="M386.5,73.77c0,0.78,0.63,1.42,1.42,1.42"/>
		</g>
		<g id="ARC_372_">
			<path class="st3" d="M424.77,75.19c0.78,0,1.42-0.63,1.42-1.42"/>
		</g>
		<g id="LINE_371_">
			<line class="st3" x1="441.92" y1="35.5" x2="478.77" y2="35.5"/>
		</g>
		<g id="LINE_370_">
			<line class="st3" x1="441.92" y1="75.19" x2="478.77" y2="75.19"/>
		</g>
		<g id="LINE_369_">
			<line class="st3" x1="440.5" y1="36.92" x2="440.5" y2="73.77"/>
		</g>
		<g id="LINE_368_">
			<line class="st3" x1="480.19" y1="36.92" x2="480.19" y2="73.77"/>
		</g>
		<g id="ARC_371_">
			<path class="st3" d="M441.92,35.5c-0.78,0-1.42,0.63-1.42,1.42"/>
		</g>
		<g id="ARC_370_">
			<path class="st3" d="M480.19,36.92c0-0.78-0.63-1.42-1.42-1.42"/>
		</g>
		<g id="ARC_369_">
			<path class="st3" d="M440.5,73.77c0,0.78,0.63,1.42,1.42,1.42"/>
		</g>
		<g id="ARC_368_">
			<path class="st3" d="M478.77,75.19c0.78,0,1.42-0.63,1.42-1.42"/>
		</g>
		<g id="LINE_367_">
			<line class="st3" x1="495.92" y1="35.5" x2="532.77" y2="35.5"/>
		</g>
		<g id="LINE_366_">
			<line class="st3" x1="495.92" y1="75.19" x2="532.77" y2="75.19"/>
		</g>
		<g id="LINE_365_">
			<line class="st3" x1="494.5" y1="36.92" x2="494.5" y2="73.77"/>
		</g>
		<g id="LINE_364_">
			<line class="st3" x1="534.19" y1="36.92" x2="534.19" y2="73.77"/>
		</g>
		<g id="ARC_367_">
			<path class="st3" d="M495.92,35.5c-0.78,0-1.42,0.63-1.42,1.42"/>
		</g>
		<g id="ARC_366_">
			<path class="st3" d="M534.19,36.92c0-0.78-0.63-1.42-1.42-1.42"/>
		</g>
		<g id="ARC_365_">
			<path class="st3" d="M494.5,73.77c0,0.78,0.63,1.42,1.42,1.42"/>
		</g>
		<g id="ARC_364_">
			<path class="st3" d="M532.77,75.19c0.78,0,1.42-0.63,1.42-1.42"/>
		</g>
		<g id="LINE_363_">
			<line class="st3" x1="549.92" y1="35.5" x2="586.77" y2="35.5"/>
		</g>
		<g id="LINE_362_">
			<line class="st3" x1="549.92" y1="75.19" x2="586.77" y2="75.19"/>
		</g>
		<g id="LINE_361_">
			<line class="st3" x1="548.5" y1="36.92" x2="548.5" y2="73.77"/>
		</g>
		<g id="LINE_360_">
			<line class="st3" x1="588.19" y1="36.92" x2="588.19" y2="73.77"/>
		</g>
		<g id="ARC_363_">
			<path class="st3" d="M549.92,35.5c-0.78,0-1.42,0.63-1.42,1.42"/>
		</g>
		<g id="ARC_362_">
			<path class="st3" d="M588.19,36.92c0-0.78-0.63-1.42-1.42-1.42"/>
		</g>
		<g id="ARC_361_">
			<path class="st3" d="M548.5,73.77c0,0.78,0.63,1.42,1.42,1.42"/>
		</g>
		<g id="ARC_360_">
			<path class="st3" d="M586.77,75.19c0.78,0,1.42-0.63,1.42-1.42"/>
		</g>
		<g id="LINE_359_">
			<line class="st3" x1="603.92" y1="35.5" x2="640.77" y2="35.5"/>
		</g>
		<g id="LINE_358_">
			<line class="st3" x1="603.92" y1="75.19" x2="640.77" y2="75.19"/>
		</g>
		<g id="LINE_357_">
			<line class="st3" x1="602.5" y1="36.92" x2="602.5" y2="73.77"/>
		</g>
		<g id="LINE_356_">
			<line class="st3" x1="642.19" y1="36.92" x2="642.19" y2="73.77"/>
		</g>
		<g id="ARC_359_">
			<path class="st3" d="M603.92,35.5c-0.78,0-1.42,0.63-1.42,1.42"/>
		</g>
		<g id="ARC_358_">
			<path class="st3" d="M642.19,36.92c0-0.78-0.63-1.42-1.42-1.42"/>
		</g>
		<g id="ARC_357_">
			<path class="st3" d="M602.5,73.77c0,0.78,0.63,1.42,1.42,1.42"/>
		</g>
		<g id="ARC_356_">
			<path class="st3" d="M640.77,75.19c0.78,0,1.42-0.63,1.42-1.42"/>
		</g>
		<g id="LINE_355_">
			<line class="st3" x1="671.42" y1="35.5" x2="708.27" y2="35.5"/>
		</g>
		<g id="LINE_354_">
			<line class="st3" x1="671.42" y1="75.19" x2="708.27" y2="75.19"/>
		</g>
		<g id="LINE_353_">
			<line class="st3" x1="670" y1="36.92" x2="670" y2="73.77"/>
		</g>
		<g id="LINE_352_">
			<line class="st3" x1="709.69" y1="36.92" x2="709.69" y2="73.77"/>
		</g>
		<g id="ARC_355_">
			<path class="st3" d="M671.42,35.5c-0.78,0-1.42,0.63-1.42,1.42"/>
		</g>
		<g id="ARC_354_">
			<path class="st3" d="M709.69,36.92c0-0.78-0.63-1.42-1.42-1.42"/>
		</g>
		<g id="ARC_353_">
			<path class="st3" d="M670,73.77c0,0.78,0.63,1.42,1.42,1.42"/>
		</g>
		<g id="ARC_352_">
			<path class="st3" d="M708.27,75.19c0.78,0,1.42-0.63,1.42-1.42"/>
		</g>
		<g id="LINE_351_">
			<line class="st3" x1="57.17" y1="89.5" x2="94.02" y2="89.5"/>
		</g>
		<g id="LINE_350_">
			<line class="st3" x1="57.17" y1="129.19" x2="94.02" y2="129.19"/>
		</g>
		<g id="LINE_349_">
			<line class="st3" x1="55.75" y1="90.92" x2="55.75" y2="127.77"/>
		</g>
		<g id="LINE_348_">
			<line class="st3" x1="95.44" y1="90.92" x2="95.44" y2="127.77"/>
		</g>
		<g id="ARC_351_">
			<path class="st3" d="M57.17,89.5c-0.78,0-1.42,0.63-1.42,1.42"/>
		</g>
		<g id="ARC_350_">
			<path class="st3" d="M95.44,90.92c0-0.78-0.63-1.42-1.42-1.42"/>
		</g>
		<g id="ARC_349_">
			<path class="st3" d="M55.75,127.77c0,0.78,0.63,1.42,1.42,1.42"/>
		</g>
		<g id="ARC_348_">
			<path class="st3" d="M94.02,129.19c0.78,0,1.42-0.63,1.42-1.42"/>
		</g>
		<g id="LINE_347_">
			<line class="st3" x1="131.42" y1="89.5" x2="168.27" y2="89.5"/>
		</g>
		<g id="LINE_346_">
			<line class="st3" x1="131.42" y1="129.19" x2="168.27" y2="129.19"/>
		</g>
		<g id="LINE_345_">
			<line class="st3" x1="130" y1="90.92" x2="130" y2="127.77"/>
		</g>
		<g id="LINE_344_">
			<line class="st3" x1="169.69" y1="90.92" x2="169.69" y2="127.77"/>
		</g>
		<g id="ARC_347_">
			<path class="st3" d="M131.42,89.5c-0.78,0-1.42,0.63-1.42,1.42"/>
		</g>
		<g id="ARC_346_">
			<path class="st3" d="M169.69,90.92c0-0.78-0.63-1.42-1.42-1.42"/>
		</g>
		<g id="ARC_345_">
			<path class="st3" d="M130,127.77c0,0.78,0.63,1.42,1.42,1.42"/>
		</g>
		<g id="ARC_344_">
			<path class="st3" d="M168.27,129.19c0.78,0,1.42-0.63,1.42-1.42"/>
		</g>
		<g id="LINE_343_">
			<line class="st3" x1="185.42" y1="89.5" x2="222.27" y2="89.5"/>
		</g>
		<g id="LINE_342_">
			<line class="st3" x1="185.42" y1="129.19" x2="222.27" y2="129.19"/>
		</g>
		<g id="LINE_341_">
			<line class="st3" x1="184" y1="90.92" x2="184" y2="127.77"/>
		</g>
		<g id="LINE_340_">
			<line class="st3" x1="223.69" y1="90.92" x2="223.69" y2="127.77"/>
		</g>
		<g id="ARC_343_">
			<path class="st3" d="M185.42,89.5c-0.78,0-1.42,0.63-1.42,1.42"/>
		</g>
		<g id="ARC_342_">
			<path class="st3" d="M223.69,90.92c0-0.78-0.63-1.42-1.42-1.42"/>
		</g>
		<g id="ARC_341_">
			<path class="st3" d="M184,127.77c0,0.78,0.63,1.42,1.42,1.42"/>
		</g>
		<g id="ARC_340_">
			<path class="st3" d="M222.27,129.19c0.78,0,1.42-0.63,1.42-1.42"/>
		</g>
		<g id="LINE_339_">
			<line class="st3" x1="239.42" y1="89.5" x2="276.27" y2="89.5"/>
		</g>
		<g id="LINE_338_">
			<line class="st3" x1="239.42" y1="129.19" x2="276.27" y2="129.19"/>
		</g>
		<g id="LINE_337_">
			<line class="st3" x1="238" y1="90.92" x2="238" y2="127.77"/>
		</g>
		<g id="LINE_336_">
			<line class="st3" x1="277.69" y1="90.92" x2="277.69" y2="127.77"/>
		</g>
		<g id="ARC_339_">
			<path class="st3" d="M239.42,89.5c-0.78,0-1.42,0.63-1.42,1.42"/>
		</g>
		<g id="ARC_338_">
			<path class="st3" d="M277.69,90.92c0-0.78-0.63-1.42-1.42-1.42"/>
		</g>
		<g id="ARC_337_">
			<path class="st3" d="M238,127.77c0,0.78,0.63,1.42,1.42,1.42"/>
		</g>
		<g id="ARC_336_">
			<path class="st3" d="M276.27,129.19c0.78,0,1.42-0.63,1.42-1.42"/>
		</g>
		<g id="LINE_335_">
			<line class="st3" x1="293.42" y1="89.5" x2="330.27" y2="89.5"/>
		</g>
		<g id="LINE_334_">
			<line class="st3" x1="293.42" y1="129.19" x2="330.27" y2="129.19"/>
		</g>
		<g id="LINE_333_">
			<line class="st3" x1="292" y1="90.92" x2="292" y2="127.77"/>
		</g>
		<g id="LINE_332_">
			<line class="st3" x1="331.69" y1="90.92" x2="331.69" y2="127.77"/>
		</g>
		<g id="ARC_335_">
			<path class="st3" d="M293.42,89.5c-0.78,0-1.42,0.63-1.42,1.42"/>
		</g>
		<g id="ARC_334_">
			<path class="st3" d="M331.69,90.92c0-0.78-0.63-1.42-1.42-1.42"/>
		</g>
		<g id="ARC_333_">
			<path class="st3" d="M292,127.77c0,0.78,0.63,1.42,1.42,1.42"/>
		</g>
		<g id="ARC_332_">
			<path class="st3" d="M330.27,129.19c0.78,0,1.42-0.63,1.42-1.42"/>
		</g>
		<g id="LINE_331_">
			<line class="st3" x1="347.42" y1="89.5" x2="384.27" y2="89.5"/>
		</g>
		<g id="LINE_330_">
			<line class="st3" x1="347.42" y1="129.19" x2="384.27" y2="129.19"/>
		</g>
		<g id="LINE_329_">
			<line class="st3" x1="346" y1="90.92" x2="346" y2="127.77"/>
		</g>
		<g id="LINE_328_">
			<line class="st3" x1="385.69" y1="90.92" x2="385.69" y2="127.77"/>
		</g>
		<g id="ARC_331_">
			<path class="st3" d="M347.42,89.5c-0.78,0-1.42,0.63-1.42,1.42"/>
		</g>
		<g id="ARC_330_">
			<path class="st3" d="M385.69,90.92c0-0.78-0.63-1.42-1.42-1.42"/>
		</g>
		<g id="ARC_329_">
			<path class="st3" d="M346,127.77c0,0.78,0.63,1.42,1.42,1.42"/>
		</g>
		<g id="ARC_328_">
			<path class="st3" d="M384.27,129.19c0.78,0,1.42-0.63,1.42-1.42"/>
		</g>
		<g id="LINE_327_">
			<line class="st3" x1="401.42" y1="89.5" x2="438.27" y2="89.5"/>
		</g>
		<g id="LINE_326_">
			<line class="st3" x1="401.42" y1="129.19" x2="438.27" y2="129.19"/>
		</g>
		<g id="LINE_325_">
			<line class="st3" x1="400" y1="90.92" x2="400" y2="127.77"/>
		</g>
		<g id="LINE_324_">
			<line class="st3" x1="439.69" y1="90.92" x2="439.69" y2="127.77"/>
		</g>
		<g id="ARC_327_">
			<path class="st3" d="M401.42,89.5c-0.78,0-1.42,0.63-1.42,1.42"/>
		</g>
		<g id="ARC_326_">
			<path class="st3" d="M439.69,90.92c0-0.78-0.63-1.42-1.42-1.42"/>
		</g>
		<g id="ARC_325_">
			<path class="st3" d="M400,127.77c0,0.78,0.63,1.42,1.42,1.42"/>
		</g>
		<g id="ARC_324_">
			<path class="st3" d="M438.27,129.19c0.78,0,1.42-0.63,1.42-1.42"/>
		</g>
		<g id="LINE_323_">
			<line class="st3" x1="455.42" y1="89.5" x2="492.27" y2="89.5"/>
		</g>
		<g id="LINE_322_">
			<line class="st3" x1="455.42" y1="129.19" x2="492.27" y2="129.19"/>
		</g>
		<g id="LINE_321_">
			<line class="st3" x1="454" y1="90.92" x2="454" y2="127.77"/>
		</g>
		<g id="LINE_320_">
			<line class="st3" x1="493.69" y1="90.92" x2="493.69" y2="127.77"/>
		</g>
		<g id="ARC_323_">
			<path class="st3" d="M455.42,89.5c-0.78,0-1.42,0.63-1.42,1.42"/>
		</g>
		<g id="ARC_322_">
			<path class="st3" d="M493.69,90.92c0-0.78-0.63-1.42-1.42-1.42"/>
		</g>
		<g id="ARC_321_">
			<path class="st3" d="M454,127.77c0,0.78,0.63,1.42,1.42,1.42"/>
		</g>
		<g id="ARC_320_">
			<path class="st3" d="M492.27,129.19c0.78,0,1.42-0.63,1.42-1.42"/>
		</g>
		<g id="LINE_319_">
			<line class="st3" x1="509.42" y1="89.5" x2="546.27" y2="89.5"/>
		</g>
		<g id="LINE_318_">
			<line class="st3" x1="509.42" y1="129.19" x2="546.27" y2="129.19"/>
		</g>
		<g id="LINE_317_">
			<line class="st3" x1="508" y1="90.92" x2="508" y2="127.77"/>
		</g>
		<g id="LINE_316_">
			<line class="st3" x1="547.69" y1="90.92" x2="547.69" y2="127.77"/>
		</g>
		<g id="ARC_319_">
			<path class="st3" d="M509.42,89.5c-0.78,0-1.42,0.63-1.42,1.42"/>
		</g>
		<g id="ARC_318_">
			<path class="st3" d="M547.69,90.92c0-0.78-0.63-1.42-1.42-1.42"/>
		</g>
		<g id="ARC_317_">
			<path class="st3" d="M508,127.77c0,0.78,0.63,1.42,1.42,1.42"/>
		</g>
		<g id="ARC_316_">
			<path class="st3" d="M546.27,129.19c0.78,0,1.42-0.63,1.42-1.42"/>
		</g>
		<g id="LINE_315_">
			<line class="st3" x1="563.42" y1="89.5" x2="600.27" y2="89.5"/>
		</g>
		<g id="LINE_314_">
			<line class="st3" x1="563.42" y1="129.19" x2="600.27" y2="129.19"/>
		</g>
		<g id="LINE_313_">
			<line class="st3" x1="562" y1="90.92" x2="562" y2="127.77"/>
		</g>
		<g id="LINE_312_">
			<line class="st3" x1="601.69" y1="90.92" x2="601.69" y2="127.77"/>
		</g>
		<g id="ARC_315_">
			<path class="st3" d="M563.42,89.5c-0.78,0-1.42,0.63-1.42,1.42"/>
		</g>
		<g id="ARC_314_">
			<path class="st3" d="M601.69,90.92c0-0.78-0.63-1.42-1.42-1.42"/>
		</g>
		<g id="ARC_313_">
			<path class="st3" d="M562,127.77c0,0.78,0.63,1.42,1.42,1.42"/>
		</g>
		<g id="ARC_312_">
			<path class="st3" d="M600.27,129.19c0.78,0,1.42-0.63,1.42-1.42"/>
		</g>
		<g id="LINE_311_">
			<line class="st3" x1="651.17" y1="89.5" x2="688.02" y2="89.5"/>
		</g>
		<g id="LINE_310_">
			<line class="st3" x1="651.17" y1="129.19" x2="688.02" y2="129.19"/>
		</g>
		<g id="LINE_309_">
			<line class="st3" x1="649.75" y1="90.92" x2="649.75" y2="127.77"/>
		</g>
		<g id="LINE_308_">
			<line class="st3" x1="689.44" y1="90.92" x2="689.44" y2="127.77"/>
		</g>
		<g id="ARC_311_">
			<path class="st3" d="M651.17,89.5c-0.78,0-1.42,0.63-1.42,1.42"/>
		</g>
		<g id="ARC_310_">
			<path class="st3" d="M689.44,90.92c0-0.78-0.63-1.42-1.42-1.42"/>
		</g>
		<g id="ARC_309_">
			<path class="st3" d="M649.75,127.77c0,0.78,0.63,1.42,1.42,1.42"/>
		</g>
		<g id="ARC_308_">
			<path class="st3" d="M688.02,129.19c0.78,0,1.42-0.63,1.42-1.42"/>
		</g>
		<g id="LINE_307_">
			<line class="st3" x1="70.67" y1="143.5" x2="107.52" y2="143.5"/>
		</g>
		<g id="LINE_306_">
			<line class="st3" x1="70.67" y1="183.19" x2="107.52" y2="183.19"/>
		</g>
		<g id="LINE_305_">
			<line class="st3" x1="69.25" y1="144.92" x2="69.25" y2="181.77"/>
		</g>
		<g id="LINE_304_">
			<line class="st3" x1="108.94" y1="144.92" x2="108.94" y2="181.77"/>
		</g>
		<g id="ARC_307_">
			<path class="st3" d="M70.67,143.5c-0.78,0-1.42,0.63-1.42,1.42"/>
		</g>
		<g id="ARC_306_">
			<path class="st3" d="M108.94,144.92c0-0.78-0.63-1.42-1.42-1.42"/>
		</g>
		<g id="ARC_305_">
			<path class="st3" d="M69.25,181.77c0,0.78,0.63,1.42,1.42,1.42"/>
		</g>
		<g id="ARC_304_">
			<path class="st3" d="M107.52,183.19c0.78,0,1.42-0.63,1.42-1.42"/>
		</g>
		<g id="LINE_303_">
			<line class="st3" x1="158.42" y1="143.5" x2="195.27" y2="143.5"/>
		</g>
		<g id="LINE_302_">
			<line class="st3" x1="158.42" y1="183.19" x2="195.27" y2="183.19"/>
		</g>
		<g id="LINE_301_">
			<line class="st3" x1="157" y1="144.92" x2="157" y2="181.77"/>
		</g>
		<g id="LINE_300_">
			<line class="st3" x1="196.69" y1="144.92" x2="196.69" y2="181.77"/>
		</g>
		<g id="ARC_303_">
			<path class="st3" d="M158.42,143.5c-0.78,0-1.42,0.63-1.42,1.42"/>
		</g>
		<g id="ARC_302_">
			<path class="st3" d="M196.69,144.92c0-0.78-0.63-1.42-1.42-1.42"/>
		</g>
		<g id="ARC_301_">
			<path class="st3" d="M157,181.77c0,0.78,0.63,1.42,1.42,1.42"/>
		</g>
		<g id="ARC_300_">
			<path class="st3" d="M195.27,183.19c0.78,0,1.42-0.63,1.42-1.42"/>
		</g>
		<g id="LINE_299_">
			<line class="st3" x1="212.42" y1="143.5" x2="249.27" y2="143.5"/>
		</g>
		<g id="LINE_298_">
			<line class="st3" x1="212.42" y1="183.19" x2="249.27" y2="183.19"/>
		</g>
		<g id="LINE_297_">
			<line class="st3" x1="211" y1="144.92" x2="211" y2="181.77"/>
		</g>
		<g id="LINE_296_">
			<line class="st3" x1="250.69" y1="144.92" x2="250.69" y2="181.77"/>
		</g>
		<g id="ARC_299_">
			<path class="st3" d="M212.42,143.5c-0.78,0-1.42,0.63-1.42,1.42"/>
		</g>
		<g id="ARC_298_">
			<path class="st3" d="M250.69,144.92c0-0.78-0.63-1.42-1.42-1.42"/>
		</g>
		<g id="ARC_297_">
			<path class="st3" d="M211,181.77c0,0.78,0.63,1.42,1.42,1.42"/>
		</g>
		<g id="ARC_296_">
			<path class="st3" d="M249.27,183.19c0.78,0,1.42-0.63,1.42-1.42"/>
		</g>
		<g id="LINE_295_">
			<line class="st3" x1="266.42" y1="143.5" x2="303.27" y2="143.5"/>
		</g>
		<g id="LINE_294_">
			<line class="st3" x1="266.42" y1="183.19" x2="303.27" y2="183.19"/>
		</g>
		<g id="LINE_293_">
			<line class="st3" x1="265" y1="144.92" x2="265" y2="181.77"/>
		</g>
		<g id="LINE_292_">
			<line class="st3" x1="304.69" y1="144.92" x2="304.69" y2="181.77"/>
		</g>
		<g id="ARC_295_">
			<path class="st3" d="M266.42,143.5c-0.78,0-1.42,0.63-1.42,1.42"/>
		</g>
		<g id="ARC_294_">
			<path class="st3" d="M304.69,144.92c0-0.78-0.63-1.42-1.42-1.42"/>
		</g>
		<g id="ARC_293_">
			<path class="st3" d="M265,181.77c0,0.78,0.63,1.42,1.42,1.42"/>
		</g>
		<g id="ARC_292_">
			<path class="st3" d="M303.27,183.19c0.78,0,1.42-0.63,1.42-1.42"/>
		</g>
		<g id="LINE_291_">
			<line class="st3" x1="320.42" y1="143.5" x2="357.27" y2="143.5"/>
		</g>
		<g id="LINE_290_">
			<line class="st3" x1="320.42" y1="183.19" x2="357.27" y2="183.19"/>
		</g>
		<g id="LINE_289_">
			<line class="st3" x1="319" y1="144.92" x2="319" y2="181.77"/>
		</g>
		<g id="LINE_288_">
			<line class="st3" x1="358.69" y1="144.92" x2="358.69" y2="181.77"/>
		</g>
		<g id="ARC_291_">
			<path class="st3" d="M320.42,143.5c-0.78,0-1.42,0.63-1.42,1.42"/>
		</g>
		<g id="ARC_290_">
			<path class="st3" d="M358.69,144.92c0-0.78-0.63-1.42-1.42-1.42"/>
		</g>
		<g id="ARC_289_">
			<path class="st3" d="M319,181.77c0,0.78,0.63,1.42,1.42,1.42"/>
		</g>
		<g id="ARC_288_">
			<path class="st3" d="M357.27,183.19c0.78,0,1.42-0.63,1.42-1.42"/>
		</g>
		<g id="LINE_287_">
			<line class="st3" x1="374.42" y1="143.5" x2="411.27" y2="143.5"/>
		</g>
		<g id="LINE_286_">
			<line class="st3" x1="374.42" y1="183.19" x2="411.27" y2="183.19"/>
		</g>
		<g id="LINE_285_">
			<line class="st3" x1="373" y1="144.92" x2="373" y2="181.77"/>
		</g>
		<g id="LINE_284_">
			<line class="st3" x1="412.69" y1="144.92" x2="412.69" y2="181.77"/>
		</g>
		<g id="ARC_287_">
			<path class="st3" d="M374.42,143.5c-0.78,0-1.42,0.63-1.42,1.42"/>
		</g>
		<g id="ARC_286_">
			<path class="st3" d="M412.69,144.92c0-0.78-0.63-1.42-1.42-1.42"/>
		</g>
		<g id="ARC_285_">
			<path class="st3" d="M373,181.77c0,0.78,0.63,1.42,1.42,1.42"/>
		</g>
		<g id="ARC_284_">
			<path class="st3" d="M411.27,183.19c0.78,0,1.42-0.63,1.42-1.42"/>
		</g>
		<g id="LINE_267_">
			<line class="st3" x1="428.42" y1="143.5" x2="465.27" y2="143.5"/>
		</g>
		<g id="LINE_266_">
			<line class="st3" x1="428.42" y1="183.19" x2="465.27" y2="183.19"/>
		</g>
		<g id="LINE_265_">
			<line class="st3" x1="427" y1="144.92" x2="427" y2="181.77"/>
		</g>
		<g id="LINE_264_">
			<line class="st3" x1="466.69" y1="144.92" x2="466.69" y2="181.77"/>
		</g>
		<g id="ARC_267_">
			<path class="st3" d="M428.42,143.5c-0.78,0-1.42,0.63-1.42,1.42"/>
		</g>
		<g id="ARC_266_">
			<path class="st3" d="M466.69,144.92c0-0.78-0.63-1.42-1.42-1.42"/>
		</g>
		<g id="ARC_265_">
			<path class="st3" d="M427,181.77c0,0.78,0.63,1.42,1.42,1.42"/>
		</g>
		<g id="ARC_264_">
			<path class="st3" d="M465.27,183.19c0.78,0,1.42-0.63,1.42-1.42"/>
		</g>
		<g id="LINE_263_">
			<line class="st3" x1="482.42" y1="143.5" x2="519.27" y2="143.5"/>
		</g>
		<g id="LINE_262_">
			<line class="st3" x1="482.42" y1="183.19" x2="519.27" y2="183.19"/>
		</g>
		<g id="LINE_261_">
			<line class="st3" x1="481" y1="144.92" x2="481" y2="181.77"/>
		</g>
		<g id="LINE_260_">
			<line class="st3" x1="520.69" y1="144.92" x2="520.69" y2="181.77"/>
		</g>
		<g id="ARC_263_">
			<path class="st3" d="M482.42,143.5c-0.78,0-1.42,0.63-1.42,1.42"/>
		</g>
		<g id="ARC_262_">
			<path class="st3" d="M520.69,144.92c0-0.78-0.63-1.42-1.42-1.42"/>
		</g>
		<g id="ARC_261_">
			<path class="st3" d="M481,181.77c0,0.78,0.63,1.42,1.42,1.42"/>
		</g>
		<g id="ARC_260_">
			<path class="st3" d="M519.27,183.19c0.78,0,1.42-0.63,1.42-1.42"/>
		</g>
		<g id="LINE_243_">
			<line class="st3" x1="536.42" y1="143.5" x2="573.27" y2="143.5"/>
		</g>
		<g id="LINE_242_">
			<line class="st3" x1="536.42" y1="183.19" x2="573.27" y2="183.19"/>
		</g>
		<g id="LINE_241_">
			<line class="st3" x1="535" y1="144.92" x2="535" y2="181.77"/>
		</g>
		<g id="LINE_240_">
			<line class="st3" x1="574.69" y1="144.92" x2="574.69" y2="181.77"/>
		</g>
		<g id="ARC_243_">
			<path class="st3" d="M536.42,143.5c-0.78,0-1.42,0.63-1.42,1.42"/>
		</g>
		<g id="ARC_242_">
			<path class="st3" d="M574.69,144.92c0-0.78-0.63-1.42-1.42-1.42"/>
		</g>
		<g id="ARC_241_">
			<path class="st3" d="M535,181.77c0,0.78,0.63,1.42,1.42,1.42"/>
		</g>
		<g id="ARC_240_">
			<path class="st3" d="M573.27,183.19c0.78,0,1.42-0.63,1.42-1.42"/>
		</g>
		<g id="LINE_239_">
			<line class="st3" x1="610.67" y1="143.5" x2="647.52" y2="143.5"/>
		</g>
		<g id="LINE_238_">
			<line class="st3" x1="610.67" y1="183.19" x2="647.52" y2="183.19"/>
		</g>
		<g id="LINE_237_">
			<line class="st3" x1="609.25" y1="144.92" x2="609.25" y2="181.77"/>
		</g>
		<g id="LINE_236_">
			<line class="st3" x1="648.94" y1="144.92" x2="648.94" y2="181.77"/>
		</g>
		<g id="ARC_239_">
			<path class="st3" d="M610.67,143.5c-0.78,0-1.42,0.63-1.42,1.42"/>
		</g>
		<g id="ARC_238_">
			<path class="st3" d="M648.94,144.92c0-0.78-0.63-1.42-1.42-1.42"/>
		</g>
		<g id="ARC_237_">
			<path class="st3" d="M609.25,181.77c0,0.78,0.63,1.42,1.42,1.42"/>
		</g>
		<g id="ARC_236_">
			<path class="st3" d="M647.52,183.19c0.78,0,1.42-0.63,1.42-1.42"/>
		</g>
		<g id="LINE_191_">
			<line class="st3" x1="684.92" y1="143.5" x2="721.77" y2="143.5"/>
		</g>
		<g id="LINE_190_">
			<line class="st3" x1="684.92" y1="183.19" x2="721.77" y2="183.19"/>
		</g>
		<g id="LINE_189_">
			<line class="st3" x1="683.5" y1="144.92" x2="683.5" y2="181.77"/>
		</g>
		<g id="LINE_188_">
			<line class="st3" x1="723.19" y1="144.92" x2="723.19" y2="181.77"/>
		</g>
		<g id="ARC_191_">
			<path class="st3" d="M684.92,143.5c-0.78,0-1.42,0.63-1.42,1.42"/>
		</g>
		<g id="ARC_190_">
			<path class="st3" d="M723.19,144.92c0-0.78-0.63-1.42-1.42-1.42"/>
		</g>
		<g id="ARC_189_">
			<path class="st3" d="M683.5,181.77c0,0.78,0.63,1.42,1.42,1.42"/>
		</g>
		<g id="ARC_188_">
			<path class="st3" d="M721.77,183.19c0.78,0,1.42-0.63,1.42-1.42"/>
		</g>
		<g id="LINE_187_">
			<line class="st3" x1="43.67" y1="197.5" x2="80.52" y2="197.5"/>
		</g>
		<g id="LINE_186_">
			<line class="st3" x1="43.67" y1="237.19" x2="80.52" y2="237.19"/>
		</g>
		<g id="LINE_185_">
			<line class="st3" x1="42.25" y1="198.92" x2="42.25" y2="235.77"/>
		</g>
		<g id="LINE_184_">
			<line class="st3" x1="81.94" y1="198.92" x2="81.94" y2="235.77"/>
		</g>
		<g id="ARC_187_">
			<path class="st3" d="M43.67,197.5c-0.78,0-1.42,0.63-1.42,1.42"/>
		</g>
		<g id="ARC_186_">
			<path class="st3" d="M81.94,198.92c0-0.78-0.63-1.42-1.42-1.42"/>
		</g>
		<g id="ARC_185_">
			<path class="st3" d="M42.25,235.77c0,0.78,0.63,1.42,1.42,1.42"/>
		</g>
		<g id="ARC_184_">
			<path class="st3" d="M80.52,237.19c0.78,0,1.42-0.63,1.42-1.42"/>
		</g>
		<g id="LINE_63_">
			<line class="st3" x1="165.17" y1="197.5" x2="202.02" y2="197.5"/>
		</g>
		<g id="LINE_62_">
			<line class="st3" x1="165.17" y1="237.19" x2="202.02" y2="237.19"/>
		</g>
		<g id="LINE_61_">
			<line class="st3" x1="163.75" y1="198.92" x2="163.75" y2="235.77"/>
		</g>
		<g id="LINE_60_">
			<line class="st3" x1="203.44" y1="198.92" x2="203.44" y2="235.77"/>
		</g>
		<g id="ARC_63_">
			<path class="st3" d="M165.17,197.5c-0.78,0-1.42,0.63-1.42,1.42"/>
		</g>
		<g id="ARC_62_">
			<path class="st3" d="M203.44,198.92c0-0.78-0.63-1.42-1.42-1.42"/>
		</g>
		<g id="ARC_61_">
			<path class="st3" d="M163.75,235.77c0,0.78,0.63,1.42,1.42,1.42"/>
		</g>
		<g id="ARC_60_">
			<path class="st3" d="M202.02,237.19c0.78,0,1.42-0.63,1.42-1.42"/>
		</g>
		<g id="LINE_59_">
			<line class="st3" x1="360.92" y1="197.5" x2="397.77" y2="197.5"/>
		</g>
		<g id="LINE_58_">
			<line class="st3" x1="360.92" y1="237.19" x2="397.77" y2="237.19"/>
		</g>
		<g id="LINE_57_">
			<line class="st3" x1="359.5" y1="198.92" x2="359.5" y2="235.77"/>
		</g>
		<g id="LINE_56_">
			<line class="st3" x1="399.19" y1="198.92" x2="399.19" y2="235.77"/>
		</g>
		<g id="ARC_59_">
			<path class="st3" d="M360.92,197.5c-0.78,0-1.42,0.63-1.42,1.42"/>
		</g>
		<g id="ARC_58_">
			<path class="st3" d="M399.19,198.92c0-0.78-0.63-1.42-1.42-1.42"/>
		</g>
		<g id="ARC_57_">
			<path class="st3" d="M359.5,235.77c0,0.78,0.63,1.42,1.42,1.42"/>
		</g>
		<g id="ARC_56_">
			<path class="st3" d="M397.77,237.19c0.78,0,1.42-0.63,1.42-1.42"/>
		</g>
		<g id="LINE_172_">
			<line class="st3" x1="556.67" y1="197.5" x2="593.52" y2="197.5"/>
		</g>
		<g id="LINE_173_">
			<line class="st3" x1="556.67" y1="237.19" x2="593.52" y2="237.19"/>
		</g>
		<g id="LINE_174_">
			<line class="st3" x1="555.25" y1="198.92" x2="555.25" y2="235.77"/>
		</g>
		<g id="LINE_175_">
			<line class="st3" x1="594.94" y1="198.92" x2="594.94" y2="235.77"/>
		</g>
		<g id="ARC_172_">
			<path class="st3" d="M556.67,197.5c-0.78,0-1.42,0.63-1.42,1.42"/>
		</g>
		<g id="ARC_173_">
			<path class="st3" d="M594.94,198.92c0-0.78-0.63-1.42-1.42-1.42"/>
		</g>
		<g id="ARC_174_">
			<path class="st3" d="M555.25,235.77c0,0.78,0.63,1.42,1.42,1.42"/>
		</g>
		<g id="ARC_175_">
			<path class="st3" d="M593.52,237.19c0.78,0,1.42-0.63,1.42-1.42"/>
		</g>
		<g id="LINE_176_">
			<line class="st3" x1="678.17" y1="197.5" x2="715.02" y2="197.5"/>
		</g>
		<g id="LINE_177_">
			<line class="st3" x1="678.17" y1="237.19" x2="715.02" y2="237.19"/>
		</g>
		<g id="LINE_178_">
			<line class="st3" x1="676.75" y1="198.92" x2="676.75" y2="235.77"/>
		</g>
		<g id="LINE_179_">
			<line class="st3" x1="716.44" y1="198.92" x2="716.44" y2="235.77"/>
		</g>
		<g id="ARC_176_">
			<path class="st3" d="M678.17,197.5c-0.78,0-1.42,0.63-1.42,1.42"/>
		</g>
		<g id="ARC_177_">
			<path class="st3" d="M716.44,198.92c0-0.78-0.63-1.42-1.42-1.42"/>
		</g>
		<g id="ARC_178_">
			<path class="st3" d="M676.75,235.77c0,0.78,0.63,1.42,1.42,1.42"/>
		</g>
		<g id="ARC_179_">
			<path class="st3" d="M715.02,237.19c0.78,0,1.42-0.63,1.42-1.42"/>
		</g>
	</g>
</g>
</svg>
